
<svg width="1920" height="1080" viewBox="0 0 1920 1080" fill="none" xmlns="http://www.w3.org/2000/svg">
  <rect width="1920" height="1080" fill="url(#hero-grad)"/>
  <g opacity="0.1" fill="white">
    
      <text x="1552.408984149002" y="636.8716348661413" font-size="40">🍕</text>
      <text x="177.76916002363308" y="912.4323195826099" font-size="40">🍜</text>
      <text x="1396.2079148270054" y="653.7507210682226" font-size="40">🍱</text>
      <text x="1615.2726669645388" y="1039.4129076266458" font-size="40">🌮</text>
    
      <text x="319.1256055543839" y="210.15213976679837" font-size="40">🍕</text>
      <text x="1450.6003995613153" y="79.5905250419495" font-size="40">🍜</text>
      <text x="884.0555534552215" y="823.0581488975398" font-size="40">🍱</text>
      <text x="1064.8178630259345" y="1078.3956562059268" font-size="40">🌮</text>
    
      <text x="288.9949795011219" y="343.8104266490476" font-size="40">🍕</text>
      <text x="446.1166303347743" y="1022.7237991087098" font-size="40">🍜</text>
      <text x="879.3255008707143" y="1047.0191929146515" font-size="40">🍱</text>
      <text x="888.8532217514978" y="317.7521318506376" font-size="40">🌮</text>
    
      <text x="1229.3702586485103" y="1048.8585314883096" font-size="40">🍕</text>
      <text x="152.34153201933623" y="297.0227194056845" font-size="40">🍜</text>
      <text x="601.496431326106" y="138.6152160383358" font-size="40">🍱</text>
      <text x="1438.9466421641855" y="200.53568182844882" font-size="40">🌮</text>
    
      <text x="1273.19257163007" y="9.655375114316112" font-size="40">🍕</text>
      <text x="1085.41356611254" y="766.9496638178318" font-size="40">🍜</text>
      <text x="1907.9836706118444" y="670.0110698566489" font-size="40">🍱</text>
      <text x="212.37773617804933" y="71.67878365628214" font-size="40">🌮</text>
    
      <text x="1495.6157217415434" y="345.04175267956805" font-size="40">🍕</text>
      <text x="1594.7704142380555" y="841.6084717259" font-size="40">🍜</text>
      <text x="1297.1698944192026" y="811.1909871835825" font-size="40">🍱</text>
      <text x="235.26087631572352" y="461.0331955540648" font-size="40">🌮</text>
    
      <text x="885.7770574535779" y="1048.1712625367354" font-size="40">🍕</text>
      <text x="1196.0497436747964" y="765.5129442152505" font-size="40">🍜</text>
      <text x="0.7809824585679337" y="997.8472017405234" font-size="40">🍱</text>
      <text x="1829.0263646192395" y="856.6298598985874" font-size="40">🌮</text>
    
      <text x="730.8115425412161" y="407.6347608484368" font-size="40">🍕</text>
      <text x="1300.716630678397" y="257.12938031318265" font-size="40">🍜</text>
      <text x="1356.4577054339613" y="237.93292804951514" font-size="40">🍱</text>
      <text x="997.8790370052603" y="537.0435737450504" font-size="40">🌮</text>
    
      <text x="848.1190226580901" y="751.5262319951572" font-size="40">🍕</text>
      <text x="268.6159237318968" y="417.4965983923496" font-size="40">🍜</text>
      <text x="1331.6981369230045" y="319.7224383540114" font-size="40">🍱</text>
      <text x="873.7904108575044" y="492.15942860951174" font-size="40">🌮</text>
    
      <text x="258.5364839287888" y="1016.5335680146978" font-size="40">🍕</text>
      <text x="182.8438093596634" y="658.8710132148034" font-size="40">🍜</text>
      <text x="97.42115797944834" y="816.5498665875072" font-size="40">🍱</text>
      <text x="1489.1475784702081" y="239.8290430748937" font-size="40">🌮</text>
    
      <text x="179.82992084329354" y="873.0212965845036" font-size="40">🍕</text>
      <text x="799.0367205569476" y="219.40223806833043" font-size="40">🍜</text>
      <text x="485.2476008819829" y="846.8264810156439" font-size="40">🍱</text>
      <text x="233.50515529883992" y="448.6698485055057" font-size="40">🌮</text>
    
      <text x="410.77955580811846" y="281.8593273084623" font-size="40">🍕</text>
      <text x="685.5167049965657" y="489.47341712582914" font-size="40">🍜</text>
      <text x="621.8384148546895" y="718.3849088347237" font-size="40">🍱</text>
      <text x="749.1825729060837" y="518.175062806214" font-size="40">🌮</text>
    
      <text x="616.2641815348923" y="469.4424465509771" font-size="40">🍕</text>
      <text x="269.38776838010017" y="892.5851239926421" font-size="40">🍜</text>
      <text x="1150.9958062111198" y="238.83180176345016" font-size="40">🍱</text>
      <text x="60.912246068049996" y="557.4928143174441" font-size="40">🌮</text>
    
      <text x="93.62743400660747" y="826.008190974103" font-size="40">🍕</text>
      <text x="1119.3938496166008" y="1067.9261546357918" font-size="40">🍜</text>
      <text x="57.98181996979821" y="422.11815226678686" font-size="40">🍱</text>
      <text x="301.08588299127433" y="570.8488104408341" font-size="40">🌮</text>
    
      <text x="435.04659660325683" y="789.0160735259412" font-size="40">🍕</text>
      <text x="600.0432166667291" y="389.6753231894489" font-size="40">🍜</text>
      <text x="930.3555539179533" y="486.1728706353681" font-size="40">🍱</text>
      <text x="351.22698953293593" y="667.902329646901" font-size="40">🌮</text>
    
      <text x="1036.5708685108596" y="508.41363184943674" font-size="40">🍕</text>
      <text x="1734.1747476702915" y="49.802773748634166" font-size="40">🍜</text>
      <text x="553.6570690389387" y="764.1429761696643" font-size="40">🍱</text>
      <text x="1837.6167386245406" y="419.78598479675844" font-size="40">🌮</text>
    
      <text x="1048.0064523452604" y="941.2699478747072" font-size="40">🍕</text>
      <text x="268.63345336799125" y="103.45321692005132" font-size="40">🍜</text>
      <text x="1513.6216615280873" y="933.2201304682887" font-size="40">🍱</text>
      <text x="1483.3188210170115" y="156.3964630444233" font-size="40">🌮</text>
    
      <text x="485.82243925679404" y="942.6327118157071" font-size="40">🍕</text>
      <text x="1917.519006833833" y="992.9672692547263" font-size="40">🍜</text>
      <text x="601.762680520027" y="841.0852770950978" font-size="40">🍱</text>
      <text x="806.5306063779012" y="133.42797245007424" font-size="40">🌮</text>
    
      <text x="16.228514316704263" y="760.3449292098146" font-size="40">🍕</text>
      <text x="88.6431292540766" y="713.1134720525763" font-size="40">🍜</text>
      <text x="376.1729201159213" y="261.21574206938755" font-size="40">🍱</text>
      <text x="1215.9159116739945" y="272.79956606613854" font-size="40">🌮</text>
    
      <text x="1379.645309391949" y="905.5239085460221" font-size="40">🍕</text>
      <text x="1628.4614686372834" y="530.7312443439841" font-size="40">🍜</text>
      <text x="1136.0337527849824" y="761.550984069962" font-size="40">🍱</text>
      <text x="753.1121703286703" y="651.1516374582121" font-size="40">🌮</text>
    
  </g>
  <defs>
    <linearGradient id="hero-grad" x1="0" y1="0" x2="1920" y2="1080" gradientUnits="userSpaceOnUse">
      <stop offset="0%" stop-color="#1E293B"/>
      <stop offset="100%" stop-color="#0F172A"/>
    </linearGradient>
  </defs>
</svg>