<?xml version="1.0" encoding="UTF-8"?>
<svg version="1.1" xmlns="http://www.w3.org/2000/svg" width="2000" height="636">
<path d="M0 0 C7.24823035 6.78788473 14.22719849 13.73225105 20.60693359 21.34912109 C21.05520508 21.87828125 21.50347656 22.40744141 21.96533203 22.95263672 C34.67707799 38.00926786 45.99140662 54.13949082 55.60693359 71.34912109 C56.05891113 72.15736328 56.51088867 72.96560547 56.9765625 73.79833984 C97.65655559 147.36189329 106.25147295 233.77925097 83.41943359 314.41162109 C75.01039471 342.72791802 62.70792449 369.60492493 46.60693359 394.34912109 C46.16381836 395.03167969 45.72070312 395.71423828 45.26416016 396.41748047 C36.45379791 409.86792393 26.45298801 422.35251011 15.57958984 434.19287109 C13.73280271 436.21153743 11.94744678 438.2699595 10.16943359 440.34912109 C3.55903546 447.92353562 -3.67646428 454.91240628 -11.39306641 461.34912109 C-12.2005835 462.0273291 -12.2005835 462.0273291 -13.02441406 462.71923828 C-29.16878655 476.2340513 -46.11893477 487.89341904 -64.39306641 498.34912109 C-65.10398437 498.75759277 -65.81490234 499.16606445 -66.54736328 499.58691406 C-136.27095095 539.21769495 -221.9725751 546.49003427 -298.82617188 526.45410156 C-319.92868169 520.64005046 -340.23003964 512.49262533 -359.59130859 502.29052734 C-361.37061366 501.3608525 -363.16699396 500.46409816 -364.96337891 499.56787109 C-397.55390974 483.11577175 -428.94159265 457.34821903 -452.39306641 429.34912109 C-452.84133789 428.81996094 -453.28960937 428.29080078 -453.75146484 427.74560547 C-508.04588909 363.43570491 -532.77862277 281.15182685 -526.93212891 197.52490234 C-521.11399301 131.4448716 -493.77339551 67.63124581 -449.39306641 18.34912109 C-448.63896484 17.5104248 -448.63896484 17.5104248 -447.86962891 16.65478516 C-438.86890664 6.68888391 -429.74194382 -2.99119454 -419.22119141 -11.38134766 C-416.35065666 -13.68491214 -413.56321427 -16.06917439 -410.76806641 -18.46337891 C-397.29297659 -29.66952687 -382.58288569 -38.95989277 -367.39306641 -47.65087891 C-366.68214844 -48.05935059 -365.97123047 -48.46782227 -365.23876953 -48.88867188 C-274.46595916 -100.48379884 -158.77103051 -97.64821704 0 0 Z " fill="#111110" transform="translate(546.39306640625,92.65087890625)"/>
<path d="M0 0 C-0.62445159 4.89133773 -2.71121796 8.78920086 -4.9296875 13.1171875 C-5.32068634 13.89256866 -5.71168518 14.66794983 -6.11453247 15.46682739 C-7.36235525 17.93913318 -8.61823409 20.40723007 -9.875 22.875 C-11.12325715 25.33629096 -12.36975563 27.79844962 -13.61404419 30.26174927 C-14.38720795 31.79129171 -15.16284453 33.3195876 -15.94137573 34.84640503 C-18.13333191 39.17038663 -20.13816857 43.52352561 -22 48 C-25.5711751 46.29695786 -28.91419356 44.27252148 -32.3125 42.25 C-47.29221818 33.57179354 -63.5651795 27.30819734 -81 31.1875 C-86.55597052 32.69827216 -91.22697948 34.79327165 -96 38 C-96.59167969 38.38414062 -97.18335938 38.76828125 -97.79296875 39.1640625 C-108.7140959 47.31117337 -114.05388713 61.19562669 -117 74 C-117.18401367 74.77819092 -117.36802734 75.55638184 -117.55761719 76.3581543 C-119.30969082 84.6820656 -119.39805464 92.97237123 -119.375 101.4375 C-119.37445618 102.18778473 -119.37391235 102.93806946 -119.37335205 103.71109009 C-119.29223734 128.08022 -114.55213372 151.15145439 -97.75 169.875 C-88.17345331 178.83794644 -76.0989372 181.47496745 -63.45703125 181.24609375 C-51.31990442 180.38209489 -40.34852305 174.34578478 -32.07421875 165.56640625 C-27.05596742 159.35738342 -23.3388587 152.62671317 -21 145 C-15.1093998 147.23597477 -9.74408031 150.31449391 -4.25 153.375 C-3.18394531 153.9525 -2.11789062 154.53 -1.01953125 155.125 C-0.00761719 155.68960938 1.00429688 156.25421875 2.046875 156.8359375 C2.97338867 157.34688965 3.89990234 157.8578418 4.85449219 158.38427734 C7 160 7 160 7.89746094 161.97875977 C8.07851053 165.54759201 6.12528953 168.48830057 4.5 171.5625 C4.13052246 172.27559326 3.76104492 172.98868652 3.38037109 173.72338867 C-8.73430167 196.79116004 -25.45389423 212.41331424 -50 221.3125 C-70.48803272 227.63529685 -93.77527933 226.86708118 -113 217 C-120.91845824 212.63119546 -127.49012555 207.24188647 -134 201 C-134.95712891 200.12021484 -134.95712891 200.12021484 -135.93359375 199.22265625 C-140.74165804 194.67159317 -144.41542325 189.54850968 -148 184 C-148.58910156 183.09378906 -149.17820312 182.18757812 -149.78515625 181.25390625 C-168.33744919 151.20326911 -169.89069825 112.3124634 -162.3125 78.5625 C-154.32858482 45.8086592 -136.02601107 16.01136725 -107 -2 C-77.49686733 -19.49511911 -28.62693164 -20.46790444 0 0 Z " fill="#F29E04" transform="translate(817,119)"/>
<path d="M0 0 C-1.62995079 5.48256175 -4.04860472 10.44307912 -6.5703125 15.5546875 C-7.0114035 16.45623566 -7.45249451 17.35778381 -7.9069519 18.28665161 C-9.3094473 21.15117571 -10.71714175 24.01310845 -12.125 26.875 C-13.07977192 28.82274767 -14.0342028 30.77066255 -14.98828125 32.71875 C-17.32157448 37.4811104 -19.6591357 42.24135688 -22 47 C-25.68866387 47 -26.69109479 46.02534743 -29.6875 43.9375 C-43.6045857 34.88588621 -61.09469681 27.4448311 -77.93359375 30.5390625 C-90.78713995 33.4595936 -100.26787101 39.0535727 -107.75 50.1875 C-122.44307155 74.91403476 -123.11105325 107.48912338 -116.1875 134.875 C-111.73525619 150.22869374 -104.94834123 166.60726107 -90.5546875 175.01171875 C-78.72692842 181.23604019 -67.44382937 183.10862434 -54.3125 179.4375 C-42.1340298 175.19057297 -31.81644565 167.68403692 -25.88671875 156.0234375 C-24.14118726 152.39587156 -22.54183768 148.71825807 -21 145 C-17.17877607 146.42114154 -13.77377795 148.19189532 -10.26171875 150.2578125 C-9.19501953 150.88300781 -8.12832031 151.50820313 -7.02929688 152.15234375 C-5.92650391 152.80332031 -4.82371094 153.45429688 -3.6875 154.125 C-2.56537109 154.78371094 -1.44324219 155.44242188 -0.28710938 156.12109375 C2.47708656 157.7443237 5.23936632 159.37072154 8 161 C0.0263244 185.94621367 -16.05193249 204.1646987 -38.8046875 216.5234375 C-48.18955738 221.11840346 -59.49367847 224.54972908 -70 225 C-71.0725 225.0515625 -72.145 225.103125 -73.25 225.15625 C-96.5419279 225.7385482 -116.86530529 217.96206896 -134 202 C-156.74180024 178.64376672 -166.45932734 148.54067512 -166.3125 116.375 C-166.30686035 115.06539307 -166.3012207 113.75578613 -166.29541016 112.40649414 C-165.83872581 75.61627482 -153.55822059 41.74273705 -128 15 C-127.32839844 14.25363281 -126.65679688 13.50726563 -125.96484375 12.73828125 C-96.56328665 -18.75161075 -35.55575048 -25.42192479 0 0 Z " fill="#F29E04" transform="translate(1580,119)"/>
<path d="M0 0 C71.94 0 143.88 0 218 0 C216.32197334 28.52645322 209.05898244 50.46978183 190 72 C189.38769531 72.69609375 188.77539062 73.3921875 188.14453125 74.109375 C178.42773445 84.46843342 160.39988478 98.40249508 145.67855835 99.17408752 C144.28368116 99.20138139 142.88868819 99.2230907 141.49365234 99.24047852 C140.73048203 99.25347488 139.96731171 99.26647125 139.18101501 99.27986145 C131.15481976 99.40723183 123.12756563 99.46346295 115.10058594 99.51489258 C111.30798959 99.54148205 107.5166766 99.58999069 103.72460938 99.65844727 C99.12385239 99.741271 94.52430218 99.78321233 89.92284012 99.79795647 C88.18393392 99.81006578 86.44505842 99.83576938 84.70658493 99.87640572 C64.23427798 100.33043411 48.10968437 91.3611595 33.265625 77.6015625 C15.24030394 60.34754215 2.92223272 37.97180691 0 13 C0 8.71 0 4.42 0 0 Z " fill="#F09E05" transform="translate(222,114)"/>
<path d="M0 0 C10.79349093 9.81411936 13.83366473 23.29678215 14.69140625 37.25390625 C14.81890097 42.36591673 14.8484858 47.47551544 14.86007118 52.58893585 C14.8673518 55.13958991 14.8831006 57.690064 14.90141296 60.24066162 C14.95334838 67.48512317 15.00178719 74.72947728 15.01733398 81.97412109 C15.02751167 86.42853074 15.05706916 90.88247038 15.09865379 95.33669281 C15.11081931 97.01565724 15.11611204 98.69468839 15.11385536 100.37369537 C15.09881092 115.2166196 17.78016516 127.74135638 23.84179688 141.390625 C25.79069241 145.95604778 25.79069241 145.95604778 24.69140625 149.25390625 C22.29467039 150.52505721 19.97703472 151.6071423 17.48046875 152.64453125 C16.75652924 152.95340271 16.03258972 153.26227417 15.28671265 153.58050537 C13.75393925 154.23119802 12.21883571 154.87642466 10.68164062 155.51660156 C8.32653242 156.49967935 5.98149402 157.50428276 3.63671875 158.51171875 C2.14768962 159.14063666 0.65812305 159.76828396 -0.83203125 160.39453125 C-1.53524506 160.69651428 -2.23845886 160.99849731 -2.96298218 161.30963135 C-7.96326272 163.36901659 -7.96326272 163.36901659 -11.30859375 162.25390625 C-12.44360352 160.49145508 -12.44360352 160.49145508 -13.5 158.2109375 C-13.88736328 157.38400391 -14.27472656 156.55707031 -14.67382812 155.70507812 C-15.06892578 154.83431641 -15.46402344 153.96355469 -15.87109375 153.06640625 C-16.46954102 151.78926758 -16.46954102 151.78926758 -17.08007812 150.48632812 C-19.09304552 146.14114142 -20.9179848 141.84667418 -22.30859375 137.25390625 C-25.07285894 139.93686953 -27.60391069 142.60971225 -29.99609375 145.62890625 C-37.43757125 154.33903259 -48.9671763 160.59541241 -60.30859375 162.25390625 C-74.58121769 163.16081256 -87.96124479 161.90022946 -99.30859375 152.25390625 C-109.3286352 142.94308733 -113.4585013 131.94078278 -114.52734375 118.50390625 C-114.94300863 106.31106989 -111.11741734 95.43088178 -103.18359375 86.25390625 C-90.57153594 72.884306 -74.64215435 63.72703764 -55.89086914 63.01879883 C-51.0911596 62.9255547 -46.29557433 62.99039097 -41.49609375 63.06640625 C-39.8209757 63.08149448 -38.14584436 63.0951755 -36.47070312 63.10742188 C-32.41633099 63.14006742 -28.36261431 63.19161533 -24.30859375 63.25390625 C-24.67237449 60.08271677 -25.08049396 56.91868754 -25.49609375 53.75390625 C-25.59728516 52.86703125 -25.69847656 51.98015625 -25.80273438 51.06640625 C-26.64270945 44.89145435 -28.18235273 40.03275563 -32.30859375 35.25390625 C-41.41946466 29.10592019 -54.80948024 29.47332816 -65.18359375 31.31640625 C-74.61019408 33.1860786 -84.07698709 36.40261697 -92.51953125 41.00390625 C-95.30859375 42.25390625 -95.30859375 42.25390625 -97.33325195 42.15966797 C-99.30859375 41.25390625 -99.30859375 41.25390625 -100.60473633 38.98486328 C-100.96720459 38.00372559 -101.32967285 37.02258789 -101.703125 36.01171875 C-102.29963867 34.41263672 -102.29963867 34.41263672 -102.90820312 32.78125 C-103.30845703 31.65847656 -103.70871094 30.53570312 -104.12109375 29.37890625 C-104.54068359 28.26386719 -104.96027344 27.14882812 -105.39257812 26 C-108.44487573 17.66275218 -108.44487573 17.66275218 -107.30859375 14.25390625 C-105.29103689 12.75453649 -103.33957745 11.46449005 -101.18359375 10.19140625 C-100.52979736 9.80436523 -99.87600098 9.41732422 -99.20239258 9.01855469 C-70.72372093 -7.29969482 -29.45363005 -22.27711106 0 0 Z M-68.859375 92.68359375 C-73.65525215 98.11441801 -73.65929057 103.00751185 -73.58203125 109.953125 C-73.13499909 115.34944183 -71.62563636 119.15276988 -67.58984375 122.8125 C-61.75010618 127.17993085 -56.50820429 128.07617253 -49.30859375 127.25390625 C-39.95879517 124.78065916 -31.19846417 120.14377667 -24.30859375 113.25390625 C-24.22173772 111.6921788 -24.20157156 110.12661281 -24.2109375 108.5625 C-24.21416016 107.61826172 -24.21738281 106.67402344 -24.22070312 105.70117188 C-24.22908203 104.70794922 -24.23746094 103.71472656 -24.24609375 102.69140625 C-24.25060547 101.69431641 -24.25511719 100.69722656 -24.25976562 99.66992188 C-24.27159368 97.19785776 -24.28807526 94.72591107 -24.30859375 92.25390625 C-26.3285237 91.77094555 -28.34958729 91.29272513 -30.37109375 90.81640625 C-31.49644531 90.54957031 -32.62179687 90.28273438 -33.78125 90.0078125 C-44.24278459 87.77184774 -60.16035374 84.66384115 -68.859375 92.68359375 Z " fill="#F29E04" transform="translate(1066.30859375,177.74609375)"/>
<path d="M0 0 C8.53847844 7.99346918 12.9265619 19.8677573 13.50398254 31.38023376 C13.59484434 35.25167862 13.61304249 39.12292625 13.61746025 42.99533081 C13.62116615 45.61365272 13.63801013 48.23160983 13.65821838 50.84985352 C13.71320258 58.2889927 13.74411647 65.72818553 13.76879883 73.16748047 C13.78486088 77.73621492 13.81527368 82.30469178 13.85356331 86.87329102 C13.86505564 88.59526796 13.87114225 90.31729135 13.87124443 92.03930664 C13.8724016 106.35876588 14.70482047 120.89389936 20.375 134.25 C20.88759549 135.52438728 21.39932943 136.79912148 21.91015625 138.07421875 C22.60431641 139.80091797 22.60431641 139.80091797 23.3125 141.5625 C23.99537137 143.55702529 24.6680747 145.55522312 25.3125 147.5625 C17.97550129 151.3645575 10.50461487 154.70577536 2.875 157.875 C1.80056641 158.32939453 0.72613281 158.78378906 -0.38085938 159.25195312 C-1.92290039 159.89487305 -1.92290039 159.89487305 -3.49609375 160.55078125 C-4.42220459 160.93790283 -5.34831543 161.32502441 -6.30249023 161.72387695 C-8.6875 162.5625 -8.6875 162.5625 -11.6875 162.5625 C-20.13396925 144.70600797 -20.13396925 144.70600797 -23.6875 136.5625 C-24.244375 137.20316406 -24.80125 137.84382812 -25.375 138.50390625 C-35.58307144 150.07420343 -46.66060257 160.17648909 -62.74072266 161.76538086 C-64.83204619 161.86476706 -66.90643603 161.89185058 -69 161.875 C-69.7412915 161.86936035 -70.48258301 161.8637207 -71.24633789 161.85791016 C-82.97566182 161.600347 -92.52021692 157.88878994 -101.4375 150.1875 C-102.18 149.32125 -102.9225 148.455 -103.6875 147.5625 C-104.17863281 147.00046875 -104.66976563 146.4384375 -105.17578125 145.859375 C-114.17987745 134.86678113 -115.66984943 121.34306377 -114.6875 107.5625 C-111.79786489 93.49410509 -103.04373735 82.7699906 -91.6796875 74.328125 C-79.71298516 66.50713526 -66.77506984 62.36416515 -52.4453125 62.46484375 C-51.67694061 62.4662587 -50.90856873 62.46767365 -50.11691284 62.46913147 C-47.68206761 62.47469317 -45.24731706 62.4872384 -42.8125 62.5 C-41.15364717 62.50501996 -39.49479288 62.50958199 -37.8359375 62.51367188 C-33.7864223 62.52465002 -29.73697716 62.54188794 -25.6875 62.5625 C-25.8224291 60.16882759 -25.96400457 57.77585484 -26.109375 55.3828125 C-26.14659668 54.71032471 -26.18381836 54.03783691 -26.22216797 53.3449707 C-26.64669542 46.52339729 -27.73358484 41.20603227 -31.8125 35.6875 C-40.29656701 29.41666786 -51.38018108 28.91089133 -61.58203125 29.96484375 C-72.45257118 31.62199539 -83.16238525 35.13324262 -92.8984375 40.25 C-95.6875 41.5625 -95.6875 41.5625 -99.6875 41.5625 C-101.2539101 37.48822899 -102.78624512 33.40196528 -104.3125 29.3125 C-104.75851562 28.15363281 -105.20453125 26.99476563 -105.6640625 25.80078125 C-106.0765625 24.68574219 -106.4890625 23.57070312 -106.9140625 22.421875 C-107.30158691 21.39545898 -107.68911133 20.36904297 -108.08837891 19.31152344 C-108.6875 16.5625 -108.6875 16.5625 -108.05859375 14.36499023 C-105.2935298 10.72993554 -101.0208718 8.99647809 -97.0625 6.875 C-96.08990234 6.35043213 -95.11730469 5.82586426 -94.11523438 5.28540039 C-65.95602584 -9.48830051 -27.99620681 -22.02054586 0 0 Z M-70.5625 93.125 C-73.94781078 97.76115443 -74.9405662 103.34494401 -74.49609375 108.99609375 C-73.30115864 115.37984621 -70.89103695 119.89860476 -65.625 123.875 C-59.84556146 127.19510299 -54.42038245 127.51337981 -48.00390625 125.87890625 C-41.38398354 123.61592558 -35.49450244 120.44418612 -29.6875 116.5625 C-28.99035889 116.14258789 -28.29321777 115.72267578 -27.57495117 115.29003906 C-25.47259009 113.71081725 -25.47259009 113.71081725 -25.23339844 111.20239258 C-25.2543457 110.29642334 -25.27529297 109.3904541 -25.296875 108.45703125 C-25.30976562 107.47412109 -25.32265625 106.49121094 -25.3359375 105.47851562 C-25.36945313 104.45435547 -25.40296875 103.43019531 -25.4375 102.375 C-25.45554687 101.33923828 -25.47359375 100.30347656 -25.4921875 99.23632812 C-25.53935563 96.67745716 -25.60515943 94.12044158 -25.6875 91.5625 C-49.1008296 85.20316629 -49.1008296 85.20316629 -70.5625 93.125 Z " fill="#F29E04" transform="translate(1710.6875,178.4375)"/>
<path d="M0 0 C10.38853016 8.03429491 16.11128212 18.03628724 18.703125 30.94921875 C20.77853971 47.46606082 20.67303607 68.50550133 11.10571289 82.75756836 C5.85411904 87.81461688 -2.65146397 87.26874217 -9.5390625 87.796875 C-11.19304168 87.9429823 -12.84681947 88.0913859 -14.50039673 88.24197388 C-18.84543643 88.63102224 -23.19258948 88.9869931 -27.54095459 89.33660889 C-31.07725221 89.6262939 -34.61136251 89.93869954 -38.14558983 90.25250053 C-45.47179676 90.90281275 -52.79941409 91.53780363 -60.13037109 92.13232422 C-62.07512833 92.29170975 -62.07512833 92.29170975 -64.05917358 92.45431519 C-68.00032379 92.68998449 -71.8813345 92.7180577 -75.828125 92.6796875 C-71.36290673 110.66823607 -71.36290673 110.66823607 -59.328125 124.2421875 C-50.61091405 129.31747643 -41.50018965 129.90550456 -31.66015625 128.09765625 C-20.9334829 125.1794681 -9.8051409 119.55556023 -1.515625 112.0546875 C-0.1853125 110.8790625 -0.1853125 110.8790625 1.171875 109.6796875 C4.35409543 110.74042764 4.83990979 111.19321752 6.765625 113.734375 C7.23871094 114.34925781 7.71179687 114.96414063 8.19921875 115.59765625 C8.68519531 116.24347656 9.17117188 116.88929688 9.671875 117.5546875 C10.63882467 118.82428985 11.60752066 120.09256444 12.578125 121.359375 C13.00416016 121.92382324 13.43019531 122.48827148 13.86914062 123.06982422 C15.20779403 124.7240747 16.64232957 126.2020573 18.171875 127.6796875 C13.52919249 141.79031244 -1.98771442 153.57381212 -14.703125 160.0546875 C-33.71764295 169.30954137 -53.72533708 171.39451915 -73.828125 164.6796875 C-89.41521234 158.126907 -100.33708068 145.08468305 -106.76953125 129.66015625 C-116.65834235 101.81822686 -114.44469975 69.92588712 -102.00708008 43.18579102 C-91.16245454 21.24284887 -74.53122068 1.70442547 -50.77734375 -6.35546875 C-34.30477151 -10.7659333 -14.45231 -9.7480346 0 0 Z M-63.8359375 36.5 C-71.56570575 44.76516345 -76.828125 56.28217163 -76.828125 67.6796875 C-64.40204696 67.10078517 -52.15871913 65.71753647 -39.828125 64.1171875 C-37.97401786 63.88039283 -36.11985141 63.64406203 -34.265625 63.40820312 C-29.78575908 62.83735759 -25.30673416 62.26030719 -20.828125 61.6796875 C-20.64106205 59.10968692 -20.46108898 56.53951643 -20.28515625 53.96875 C-20.23170044 53.24437744 -20.17824463 52.52000488 -20.12316895 51.77368164 C-19.59016404 43.8126297 -20.53726772 37.97151778 -25.828125 31.6796875 C-38.09679853 22.77888513 -53.18390158 26.84270673 -63.8359375 36.5 Z " fill="#F29E04" transform="translate(1375.828125,175.3203125)"/>
<path d="M0 0 C4.17915887 3.13786343 7.98238719 7.04680564 10.3359375 11.75390625 C11.71989212 11.76270561 11.71989212 11.76270561 13.13180542 11.77168274 C21.81388058 11.82951335 30.49569583 11.90153409 39.17751884 11.98962116 C43.64127687 12.03440715 48.10494188 12.07364477 52.56884766 12.1003418 C56.87432868 12.12629317 61.17945333 12.16663662 65.48471451 12.21709251 C67.12975772 12.23381677 68.77486265 12.24529632 70.4199791 12.25152016 C72.71900821 12.26110137 75.01711411 12.28908614 77.31591797 12.3215332 C79.28115921 12.33818779 79.28115921 12.33818779 81.28610229 12.35517883 C82.29254791 12.48675888 83.29899353 12.61833893 84.3359375 12.75390625 C86.90222089 16.60333134 86.63058212 19.79688512 86.5859375 24.25390625 C86.59367188 25.02605469 86.60140625 25.79820312 86.609375 26.59375 C86.59586903 30.49022093 86.54268919 32.44377872 84.3359375 35.75390625 C81.3999939 36.15263367 81.3999939 36.15263367 77.59130859 36.1862793 C76.55211525 36.20156677 76.55211525 36.20156677 75.4919281 36.21716309 C73.19766266 36.24740316 70.90381392 36.25657535 68.609375 36.265625 C67.02038168 36.28246361 65.43140174 36.30061274 63.84243774 36.32002258 C59.6569029 36.36761792 55.47142231 36.39736531 51.28570557 36.42346191 C47.01588216 36.4532196 42.74624592 36.49976625 38.4765625 36.54492188 C30.0964459 36.63106332 21.71631245 36.69836003 13.3359375 36.75390625 C12.995625 37.53894531 12.6553125 38.32398438 12.3046875 39.1328125 C11.57765625 40.70869141 11.57765625 40.70869141 10.8359375 42.31640625 C10.371875 43.34894531 9.9078125 44.38148438 9.4296875 45.4453125 C7.44445487 48.58242451 6.05431144 49.84667084 3.18287659 52.03547668 C0.04517405 54.66471614 -1.22291241 56.27463544 -1.68666077 60.37138367 C-1.73682658 62.1423305 -1.74366167 63.91485252 -1.71508789 65.6862793 C-1.73071274 66.6597934 -1.74633759 67.6333075 -1.76243591 68.63632202 C-1.80265331 71.84722139 -1.78430994 75.05459706 -1.76171875 78.265625 C-1.76965841 80.51700198 -1.77982199 82.76837211 -1.792099 85.01972961 C-1.80840077 89.74348736 -1.79529113 94.46603738 -1.76196289 99.18969727 C-1.72227282 105.18946279 -1.75833532 111.1858641 -1.81774235 117.18536663 C-1.85452973 121.84187064 -1.84800683 126.49760153 -1.82946587 131.15418434 C-1.82601926 133.3621712 -1.83583531 135.57022628 -1.86015511 137.77808189 C-1.97549203 150.54565037 -0.95211208 160.70346905 5.19341183 172.08633709 C7.95072306 177.23015522 9.63334148 181.866865 8.3359375 187.75390625 C3.40127806 194.57149162 -4.5282119 195.98281546 -12.3515625 197.44140625 C-25.8091685 198.7115016 -41.59757948 198.92420284 -53.24609375 191.1328125 C-55.92624333 188.52649624 -56.58838642 186.40099603 -57.0222168 182.69140625 C-56.68325396 178.96489454 -56.28119498 177.69753515 -54.51611328 174.59790039 C-43.44950373 154.81957928 -45.20579572 133.04289651 -45.47021484 111.03051758 C-45.53908511 105.288999 -45.52605268 99.551025 -45.48888969 93.80932522 C-45.46775436 89.3557634 -45.48560753 84.90302613 -45.51565933 80.44954109 C-45.52598089 78.33133453 -45.52511053 76.21304131 -45.51256943 74.09484673 C-45.50163894 71.14654177 -45.54243895 68.20333728 -45.59716797 65.25561523 C-45.58411621 64.39276413 -45.57106445 63.52991302 -45.55761719 62.64091492 C-45.67688931 58.85431989 -45.91148069 56.61850877 -48.45122147 53.70073128 C-50.57274584 51.81144443 -50.57274584 51.81144443 -52.77189827 50.19983006 C-55.08736988 48.43042998 -56.30830651 46.59962291 -57.6015625 44.00390625 C-57.98183594 43.2665625 -58.36210937 42.52921875 -58.75390625 41.76953125 C-59.6640625 39.75390625 -59.6640625 39.75390625 -60.6640625 36.75390625 C-61.82251175 36.74510689 -61.82251175 36.74510689 -63.00436401 36.73612976 C-70.27373636 36.67828569 -77.54276268 36.60625773 -84.81182671 36.51819134 C-88.54917125 36.47341573 -92.28640497 36.43417602 -96.02392578 36.4074707 C-99.6291874 36.38150865 -103.23402419 36.34115813 -106.83902359 36.29071999 C-108.2161138 36.27400287 -109.59327757 36.26251882 -110.97045517 36.25629234 C-112.89562285 36.24670466 -114.8206587 36.21697917 -116.74560547 36.1862793 C-118.39107864 36.16962471 -118.39107864 36.16962471 -120.0697937 36.15263367 C-120.9259024 36.02105362 -121.78201111 35.88947357 -122.6640625 35.75390625 C-125.23034589 31.90448116 -124.95870712 28.71092738 -124.9140625 24.25390625 C-124.92179688 23.48175781 -124.92953125 22.70960938 -124.9375 21.9140625 C-124.92399403 18.01759157 -124.87081419 16.06403378 -122.6640625 12.75390625 C-119.9559021 12.3931427 -119.9559021 12.3931427 -116.47021484 12.41333008 C-115.16901703 12.41355667 -113.86781921 12.41378326 -112.52719116 12.41401672 C-111.10145731 12.42933788 -109.67572694 12.44498588 -108.25 12.4609375 C-106.79554684 12.46653182 -105.34108803 12.47080269 -103.8866272 12.47380066 C-100.05599395 12.48526251 -96.22570122 12.51474078 -92.39520264 12.5479126 C-88.48747362 12.57858487 -84.57968966 12.59229988 -80.671875 12.60742188 C-73.00244882 12.63960958 -65.33330335 12.69082162 -57.6640625 12.75390625 C-57.35952148 11.9654834 -57.05498047 11.17706055 -56.74121094 10.36474609 C-52.99720755 1.28986571 -43.1435748 -2.58988503 -34.6640625 -6.24609375 C-22.8120146 -10.1892225 -10.13476725 -6.37818948 0 0 Z " fill="#EE9C05" transform="translate(363.6640625,225.24609375)"/>
<path d="M0 0 C0.65300575 2.44066168 1.1775308 4.81928999 1.64477539 7.29736328 C1.79642151 8.06391739 1.94806763 8.8304715 2.10430908 9.62025452 C2.43496982 11.29785906 2.76157757 12.97626617 3.08470345 14.65533829 C3.60454943 17.35612505 4.13488029 20.05466991 4.66783142 22.75289917 C5.80907017 28.54172372 6.93611235 34.33327075 8.0625 40.125 C9.5239583 47.62930417 10.99300281 55.13207407 12.47265625 62.6328125 C12.65484333 63.55835182 12.83703041 64.48389114 13.02473831 65.43747711 C16.11442184 81.0860225 19.56289714 96.63494221 23.25440979 112.15213013 C23.53142447 113.32179007 23.53142447 113.32179007 23.81403542 114.5150795 C24.15803815 115.96400762 24.50515035 117.4122025 24.85597801 118.85949326 C25.52158787 121.65696858 26 124.11118108 26 127 C27.32 127 28.64 127 30 127 C30.09651855 126.33315186 30.19303711 125.66630371 30.29248047 124.97924805 C31.58400987 116.63619246 33.4961419 108.49778501 35.51202393 100.30926514 C40.92801275 78.24893906 45.78175666 56.06626107 50.625 33.875 C50.80789833 33.03723148 50.99079666 32.19946297 51.17923737 31.33630753 C53.45905455 20.89222397 55.7327296 10.44681444 58 0 C62.45135384 -1.00809835 66.29100947 -0.82818309 70.78515625 -0.2578125 C71.52326035 -0.16998505 72.26136444 -0.08215759 73.02183533 0.0083313 C74.57628085 0.19475419 76.13028127 0.38492227 77.68383789 0.57861328 C80.05719353 0.8743388 82.43168138 1.15887774 84.80664062 1.44140625 C86.32039127 1.62434936 87.83406602 1.80792182 89.34765625 1.9921875 C90.40872337 2.12039383 90.40872337 2.12039383 91.4912262 2.25119019 C94.72867142 2.65685555 97.84666357 3.16991733 101 4 C99.53250261 11.21881747 97.5139318 18.20009452 95.35608482 25.2409935 C94.7195649 27.31891199 94.08756004 29.39815773 93.45674133 31.47781372 C92.54882451 34.47090123 91.63984507 37.46366223 90.7300415 40.45617676 C80.8968937 72.8226968 71.70280336 105.30994513 63 138 C61.7193742 142.80816027 60.43505376 147.61531455 59.1484375 152.421875 C58.84845856 153.54982483 58.54847961 154.67777466 58.2394104 155.83990479 C57.96108368 156.87854675 57.68275696 157.91718872 57.39599609 158.98730469 C57.15013763 159.9085614 56.90427917 160.82981812 56.65097046 161.7789917 C56 164 56 164 55 166 C52.65462188 166.45271788 50.40065063 166.77412744 48.03125 167.0234375 C46.96046204 167.14602432 46.96046204 167.14602432 45.86804199 167.27108765 C38.49141459 168.09777173 31.10076851 168.79031465 23.70605469 169.43261719 C21.47285478 169.62736725 19.24035227 169.82908706 17.0078125 170.03125 C15.55732813 170.15926802 14.10680848 170.28688702 12.65625 170.4140625 C11.37556641 170.5270166 10.09488281 170.6399707 8.77539062 170.75634766 C4.82907456 171.01103101 0.95288237 171.04110735 -3 171 C-5.54900438 163.85096144 -7.39113615 156.62601891 -9.13074493 149.24142265 C-9.63816113 147.08869477 -10.15084112 144.93728023 -10.66497803 142.78614807 C-11.39853499 139.71689797 -12.1308166 136.64734857 -12.86218262 133.57757568 C-19.04317919 107.66484651 -25.46908288 81.91408313 -33.25927734 56.43145752 C-35.65290176 48.57427097 -38.00055808 40.70318524 -40.34631348 32.831604 C-41.2314134 29.87459552 -42.12818512 26.92131856 -43.02636719 23.96826172 C-43.56486116 22.1729739 -44.10296735 20.37756971 -44.640625 18.58203125 C-44.89517456 17.75593857 -45.14972412 16.92984589 -45.4119873 16.07872009 C-47.11364731 10.34094192 -47.11364731 10.34094192 -46 7 C-39.77203607 5.8331529 -33.54223679 4.67653049 -27.31103516 3.52709961 C-25.19015221 3.13461437 -23.06970553 2.73976414 -20.94970703 2.3425293 C-17.90768418 1.77294998 -14.86420918 1.21181067 -11.8203125 0.65234375 C-10.86818878 0.47219223 -9.91606506 0.29204071 -8.93508911 0.10643005 C-7.61394608 -0.13393227 -7.61394608 -0.13393227 -6.26611328 -0.37915039 C-5.48889923 -0.52349014 -4.71168518 -0.6678299 -3.91091919 -0.81654358 C-2 -1 -2 -1 0 0 Z " fill="#F29E04" transform="translate(1152,170)"/>
<path d="M0 0 C0.2098412 12.57952766 0.36910309 25.15862942 0.46630955 37.73956013 C0.51299804 43.58343766 0.5761778 49.42610555 0.67895508 55.26928711 C0.77776851 60.9234143 0.83076984 66.57638876 0.85389519 72.23131371 C0.87034406 74.37330429 0.90245824 76.51524191 0.95157051 78.65673256 C1.26912897 93.09657449 -0.72224004 103.61966213 -8.07425022 116.17486858 C-10.18554074 120.33731371 -10.45391385 124.3852092 -10 129 C-8.56441996 132.15225269 -6.85527141 135.07794753 -5 138 C-5.61746094 138.48726562 -6.23492187 138.97453125 -6.87109375 139.4765625 C-27.24858502 156.53534515 -32.74440258 181.63116317 -35 207 C-34.45730469 206.51789063 -33.91460937 206.03578125 -33.35546875 205.5390625 C-32.64003906 204.90742188 -31.92460937 204.27578125 -31.1875 203.625 C-30.47980469 202.99851562 -29.77210938 202.37203125 -29.04296875 201.7265625 C-24.76135348 198.10806547 -24.76135348 198.10806547 -21.49389648 197.64428711 C-19 198 -19 198 -17.42602539 199.54125977 C-16.98766357 200.25080811 -16.54930176 200.96035645 -16.09765625 201.69140625 C-15.59943359 202.47193359 -15.10121094 203.25246094 -14.58789062 204.05664062 C-14.08451172 204.88357422 -13.58113281 205.71050781 -13.0625 206.5625 C-7.2890054 216.56773401 -7.2890054 216.56773401 1.06474304 224.22201538 C3 226 3 226 3.48101807 228.67655945 C3.4676944 230.29205437 3.4676944 230.29205437 3.45410156 231.94018555 C3.45379944 233.16122482 3.45349731 234.3822641 3.45318604 235.64030457 C3.43254089 236.95912125 3.41189575 238.27793793 3.390625 239.63671875 C3.38316326 241.00005769 3.37747001 242.36340736 3.37347412 243.72676086 C3.35821209 247.31256804 3.31892672 250.8977256 3.2746582 254.48327637 C3.23371696 258.14305839 3.21546564 261.80294554 3.1953125 265.46289062 C3.15243188 272.64222302 3.08417508 279.82102044 3 287 C1.56383146 287.05529837 0.12704568 287.09471608 -1.30981445 287.12744141 C-2.10982376 287.15109772 -2.90983307 287.17475403 -3.73408508 287.1991272 C-6 287 -6 287 -9.04296875 284.9609375 C-12.7606696 279.53510383 -11.50614662 271.92545706 -11.3125 265.625 C-11.28739387 264.20707042 -11.26458475 262.78909821 -11.24414062 261.37109375 C-11.18930824 257.91317012 -11.10316611 254.45685812 -11 251 C-12.62180176 251.02054443 -12.62180176 251.02054443 -14.27636719 251.04150391 C-27.00402974 250.89964037 -39.64786683 245.35490873 -48.875 236.75 C-60.18652322 224.67090913 -61.45284218 209.33171978 -62.125 193.5625 C-62.19809562 192.04747144 -62.2723099 190.53249642 -62.34765625 189.01757812 C-62.50043672 185.91659807 -62.64295009 182.81535611 -62.77954102 179.71362305 C-62.91613495 176.67141019 -63.07749696 173.63247987 -63.26538086 170.59301758 C-64.17427766 155.45992155 -64.25606732 140.32018468 -64.29516602 125.16479492 C-64.30403704 122.09818743 -64.32498493 119.0320313 -64.35668945 115.96557617 C-64.70868118 81.10885698 -60.20248399 47.62200475 -37 20 C-36.46117187 19.34773438 -35.92234375 18.69546875 -35.3671875 18.0234375 C-26.94050147 8.74984835 -12.75330683 -0.1894777 0 0 Z " fill="#F09E05" transform="translate(308,281)"/>
<path d="M0 0 C16.82132539 2.29561037 30.36043319 10.87914542 41 24 C52.90498117 40.12743754 59.62993989 58.36674435 63 78 C63.17732666 78.99821777 63.35465332 79.99643555 63.53735352 81.02490234 C65.11425723 90.76703733 65.35088406 100.28643029 65.3125 110.125 C65.31200653 111.00253937 65.31151306 111.88007874 65.31100464 112.78421021 C65.2786684 132.18573673 64.43239694 151.55925288 63.5625 170.9375 C63.52879429 171.69034523 63.49508858 172.44319046 63.46036148 173.21884918 C63.23189858 178.3011879 62.99534481 183.38310625 62.75390625 188.46484375 C62.66317841 190.39853569 62.66317841 190.39853569 62.57061768 192.37129211 C61.01891005 224.02505915 61.01891005 224.02505915 48 236 C39.46833055 243.05926843 26.44421742 251 15 251 C15.02094727 251.88260498 15.04189453 252.76520996 15.06347656 253.67456055 C15.13184095 256.96405569 15.18188949 260.25279094 15.21972656 263.54272461 C15.23978421 264.96374457 15.26703778 266.38468259 15.30175781 267.80541992 C15.35054011 269.85355895 15.37302539 271.90060275 15.390625 273.94921875 C15.41157227 275.17987061 15.43251953 276.41052246 15.45410156 277.6784668 C14.91705347 281.6067137 13.75963324 283.21246252 11 286 C7.78548731 287.60725635 4.56387464 287.05748185 1 287 C0.88403807 278.74188052 0.79525146 270.48410241 0.74093914 262.22536945 C0.7148688 258.39026907 0.67951966 254.55572657 0.62280273 250.72094727 C0.56838836 247.01858748 0.53856017 243.31676351 0.52561378 239.61403465 C0.51639053 238.20300042 0.49837884 236.79199482 0.47134972 235.38118935 C0.43494595 233.40196067 0.43295667 231.4221903 0.43237305 229.44262695 C0.42126999 228.31677689 0.41016693 227.19092682 0.39872742 226.03096008 C1.18859977 222.04928582 2.97623067 220.60892112 6 218 C12.16325406 211.03344541 16.55730331 203.11224876 21 195 C25.66666667 199 30.33333333 203 35 207 C35.56797347 185.17671173 28.30818366 161.0806906 13.19921875 144.90625 C10.84969644 142.54011154 8.47070397 140.23859191 6 138 C6.28875 137.45472656 6.5775 136.90945313 6.875 136.34765625 C7.24625 135.59355469 7.6175 134.83945312 8 134.0625 C8.37125 133.33160156 8.7425 132.60070312 9.125 131.84765625 C10.91095773 126.03532059 10.77527784 120.99360869 8.06640625 115.5078125 C7.25073612 114.03620219 6.41575347 112.57514247 5.5625 111.125 C4.7289159 109.6493136 3.89682027 108.17278513 3.06640625 106.6953125 C2.69459229 106.05609863 2.32277832 105.41688477 1.93969727 104.75830078 C0.31663786 101.72133693 -0.12449338 99.2212268 -0.12025452 95.84284973 C-0.12162918 94.99731033 -0.12300385 94.15177094 -0.12442017 93.28060913 C-0.12082489 92.35632111 -0.11722961 91.43203308 -0.11352539 90.47973633 C-0.11367142 89.50394119 -0.11381744 88.52814606 -0.1139679 87.52278137 C-0.11327038 84.29250884 -0.10548545 81.06229373 -0.09765625 77.83203125 C-0.0957915 75.59429455 -0.09436787 73.35655744 -0.09336853 71.11882019 C-0.08954784 65.22513708 -0.07972135 59.33147856 -0.06866455 53.43780518 C-0.05844081 47.42533704 -0.05386884 41.41286494 -0.04882812 35.40039062 C-0.03809871 23.60024961 -0.02102763 11.80012685 0 0 Z " fill="#EF9D05" transform="translate(371,281)"/>
<path d="M0 0 C0.1944725 7.60979338 -0.46684954 15.08482535 -1.22680664 22.64892578 C-1.43839807 24.75895573 -1.6425387 26.8696124 -1.84570312 28.98046875 C-2.37573609 34.3813281 -2.9340369 39.6701845 -4 45 C9.2 45 22.4 45 36 45 C36 54 36 54 35.34375 58.375 C35.22193359 59.20773438 35.10011719 60.04046875 34.97460938 60.8984375 C34.81798828 61.92195313 34.66136719 62.94546875 34.5 64 C34.005 67.3 33.51 70.6 33 74 C20.46 74 7.92 74 -5 74 C-5.80408966 105.57930352 -5.80408966 105.57930352 -6.17724609 137.16583252 C-6.18400905 138.58166567 -6.19418688 139.9974872 -6.20800781 141.41326904 C-6.28749395 150.14131791 -5.77252495 157.68242515 -3 166 C6.4466 170.29390909 18.25461038 167.01157341 28 165 C30.08967179 169.17934357 29.70130344 174.40007304 30 179 C30.15275391 180.49853516 30.15275391 180.49853516 30.30859375 182.02734375 C30.76375585 188.79904115 30.76375585 188.79904115 28.89453125 191.73828125 C27.04514849 193.43240718 25.13540976 194.68076003 23 196 C22.04222656 196.65871094 21.08445312 197.31742188 20.09765625 197.99609375 C7.95873884 206.01513616 -4.18691461 210.02462228 -18.7578125 207.52734375 C-28.92668941 204.93070393 -36.75870472 197.79135755 -42.25390625 188.9921875 C-47.83609628 178.48695904 -48.34243714 166.99668762 -47.5546875 155.34375 C-46.66083616 140.33213445 -46.65178874 125.27939892 -46.46777344 110.24603271 C-46.416806 106.14901148 -46.36151992 102.0520485 -46.30664062 97.95507812 C-46.20029591 89.97010081 -46.0989977 81.98507178 -46 74 C-53.59 74 -61.18 74 -69 74 C-67 53.71428571 -67 53.71428571 -65 45 C-58.73 45 -52.46 45 -46 45 C-46 33.12 -46 21.24 -46 9 C-22.33754139 4.04739238 -22.33754139 4.04739238 -10.625 1.6875 C-9.78227539 1.51637695 -8.93955078 1.34525391 -8.07128906 1.16894531 C-2.23628346 0 -2.23628346 0 0 0 Z " fill="#F29E04" transform="translate(1942,132)"/>
<path d="M0 0 C3.23089392 28.09023674 3.23089392 28.09023674 3.7890625 38.49609375 C3.98106046 40.7751806 4.36752129 42.80706151 5 45 C5.58265625 44.14019531 6.1653125 43.28039062 6.765625 42.39453125 C12.84897317 33.56593534 19.46812857 25.62505472 27 18 C27.74894531 17.2265625 28.49789063 16.453125 29.26953125 15.65625 C36.22583723 8.94515703 47.28742501 1.77520369 57.1875 1.9375 C59.0746875 1.9684375 59.0746875 1.9684375 61 2 C60.53937259 14.78521923 59.88902105 27.54952249 59 40.3125 C58.9170166 41.54000977 58.8340332 42.76751953 58.74853516 44.03222656 C58.62551025 45.74297363 58.62551025 45.74297363 58.5 47.48828125 C58.4278125 48.50446533 58.355625 49.52064941 58.28125 50.56762695 C58 53 58 53 57 55 C55.04150391 55.36303711 55.04150391 55.36303711 52.4765625 55.52734375 C51.54312012 55.5953418 50.60967773 55.66333984 49.64794922 55.73339844 C48.65037598 55.80075195 47.65280273 55.86810547 46.625 55.9375 C31.94642192 57.12341099 17.93779718 60.06585697 6.4932251 70.10453796 C3.62198401 73.74921851 4.22359245 77.74595367 4.46875 82.1875 C4.49755249 83.22068359 4.52635498 84.25386719 4.55603027 85.31835938 C4.66678587 88.88123567 4.83285686 92.4393447 5 96 C5.08028906 98.03814059 5.15552084 100.07642873 5.23034668 102.11477661 C5.55707441 110.98166272 5.96543452 119.8439813 6.39068604 128.706604 C6.57575673 132.58936865 6.75435718 136.47243119 6.93359375 140.35546875 C7.28293228 147.90394171 7.63911963 155.45206905 8 163 C2.09269637 164.14403614 -3.81551146 165.28323669 -9.72460938 166.41796875 C-11.73463103 166.8046611 -13.74439931 167.19267295 -15.75390625 167.58203125 C-18.64257233 168.14149622 -21.53211676 168.69620767 -24.421875 169.25 C-25.76895538 169.51248535 -25.76895538 169.51248535 -27.14324951 169.78027344 C-27.98381897 169.94043945 -28.82438843 170.10060547 -29.69042969 170.265625 C-30.79629425 170.47880371 -30.79629425 170.47880371 -31.92449951 170.69628906 C-34 171 -34 171 -38 171 C-38.0813933 161.19969792 -37.87332733 151.47244385 -37.34375 141.68359375 C-37.24196258 139.69711491 -37.14017931 137.71063584 -37.03862762 135.72414494 C-36.86229192 132.29509464 -36.68095818 128.86630894 -36.5 125.4375 C-36.28349868 121.33134881 -36.06807291 117.22515494 -35.85803223 113.1186676 C-35.72783133 110.57954332 -35.5945157 108.04057593 -35.45739746 105.5018158 C-34.87569566 94.15302246 -34.71673736 82.84069299 -35.515625 71.5 C-35.5714122 70.66769867 -35.6271994 69.83539734 -35.68467712 68.97787476 C-35.86640253 66.31806295 -36.05715191 63.65902702 -36.25 61 C-36.31458405 60.08889465 -36.37916809 59.17778931 -36.44570923 58.23907471 C-37.62970498 41.7180441 -39.4933768 25.37251979 -42 9 C-32.60268443 6.55860742 -23.17205511 4.3266325 -13.6875 2.25 C-12.67937256 2.02739502 -11.67124512 1.80479004 -10.63256836 1.57543945 C-9.68518799 1.37007568 -8.73780762 1.16471191 -7.76171875 0.953125 C-6.91569092 0.76911133 -6.06966309 0.58509766 -5.19799805 0.39550781 C-3 0 -3 0 0 0 Z " fill="#F29E04" transform="translate(1802,169)"/>
<path d="M0 0 C1.32 14.85 2.64 29.7 4 45 C6.97 40.71 9.94 36.42 13 32 C22.85189054 19.33160008 36.27955884 3.85040913 53 1 C55.66754912 0.94982037 58.33171047 0.98363427 61 1 C60.59358003 7.1016522 60.18455612 13.2031224 59.77319336 19.30444336 C59.63381789 21.37698731 59.49513494 23.44957796 59.35717773 25.5222168 C59.15794153 28.51363685 58.9561564 31.50487613 58.75390625 34.49609375 C58.6934462 35.41208847 58.63298615 36.32808319 58.57069397 37.27183533 C58.18921055 42.8696474 57.65659965 48.42757501 57 54 C56.37134033 54.03963867 55.74268066 54.07927734 55.0949707 54.12011719 C38.31379437 55.23139238 24.58187073 57.01737702 10 66 C9.33484375 66.33128906 8.6696875 66.66257812 7.984375 67.00390625 C5.96817664 68.0662344 5.96817664 68.0662344 4 71 C3.69239273 73.93490115 3.69239273 73.93490115 3.81445312 77.27148438 C3.83556152 78.52856201 3.85666992 79.78563965 3.87841797 81.08081055 C4.07063804 87.277013 4.33430934 93.4654636 4.65625 99.65625 C4.72391076 101.01515755 4.79116219 102.37408554 4.85803223 103.73303223 C5.06820176 107.9888839 5.28366563 112.24445782 5.5 116.5 C5.75128008 121.44296407 6.0002045 126.38602515 6.24345398 131.32939148 C6.34035697 133.27560394 6.44140465 135.22160867 6.54260254 137.16760254 C6.9523616 145.45704768 7.07516538 153.70118489 7 162 C1.25370655 163.14537477 -4.49377282 164.28452541 -10.24243164 165.41796875 C-12.19719596 165.80428709 -14.15162753 166.19229315 -16.10571289 166.58203125 C-18.9172693 167.14248389 -21.72997313 167.69682234 -24.54296875 168.25 C-25.84949654 168.51248535 -25.84949654 168.51248535 -27.18241882 168.78027344 C-28.002892 168.94043945 -28.82336517 169.10060547 -29.66870117 169.265625 C-30.74458748 169.47880371 -30.74458748 169.47880371 -31.84220886 169.69628906 C-34.25099171 170.0353273 -36.57058944 170.0500186 -39 170 C-38.96241577 169.26339645 -38.92483154 168.52679291 -38.8861084 167.76786804 C-34.77255821 92.95290487 -34.77255821 92.95290487 -41.1730957 18.4284668 C-41.29644287 17.63867432 -41.41979004 16.84888184 -41.546875 16.03515625 C-41.65870117 15.3687915 -41.77052734 14.70242676 -41.88574219 14.01586914 C-42.02588225 11.54335523 -41.56446326 9.40157729 -41 7 C-35.80635692 5.83093575 -30.61028679 4.67362293 -25.41162109 3.52709961 C-23.64365253 3.135461 -21.87638877 2.74062645 -20.10986328 2.3425293 C-17.56982304 1.77069899 -15.02746581 1.21042887 -12.484375 0.65234375 C-11.69569031 0.47219223 -10.90700562 0.29204071 -10.09442139 0.10643005 C-6.17831387 -0.74104084 -3.96433849 -0.99108462 0 0 Z " fill="#F29E04" transform="translate(883,170)"/>
<path d="M0 0 C14.19 0 28.38 0 43 0 C43.12032643 24.17669896 43.12032643 24.17669896 43.14648438 34.49414062 C43.16440734 41.53009846 43.18559488 48.56593901 43.22631836 55.60180664 C43.25894995 61.27522504 43.27686115 66.94851762 43.28463173 72.62202263 C43.29016838 74.78493162 43.3009801 76.94783383 43.31719017 79.11068916 C43.33901462 82.14368618 43.34196478 85.17616542 43.34057617 88.20922852 C43.351362 89.10043396 43.36214783 89.9916394 43.3732605 90.90985107 C43.33520504 98.60778648 41.41558192 104.26585444 36 110 C29.44459655 114.58878241 22.80627705 114.57630233 15 114 C8.44748349 111.73640339 4.17281087 107.0727859 0.83753204 101.06951714 C-0.73587595 97.1816721 -0.52019869 93.25648641 -0.45410156 89.11743164 C-0.45468567 88.15080597 -0.45526978 87.1841803 -0.45587158 86.18826294 C-0.45309788 83.01185462 -0.42203906 79.83639945 -0.390625 76.66015625 C-0.38316009 74.45056165 -0.37746834 72.24096041 -0.37347412 70.03135681 C-0.35823762 64.22962 -0.31897248 58.42828685 -0.2746582 52.62670898 C-0.22644896 45.65832612 -0.20816208 38.68980792 -0.18484497 31.72130585 C-0.14612075 21.1472569 -0.06945217 10.57409283 0 0 Z " fill="#EF9D05" transform="translate(320,510)"/>
<path d="M0 0 C4.98041064 -0.09948577 9.96023252 -0.17175686 14.94140625 -0.21972656 C16.63291511 -0.2397406 18.32435567 -0.26696073 20.015625 -0.30175781 C22.45850554 -0.35073065 24.90046511 -0.37307033 27.34375 -0.390625 C28.08991577 -0.41127014 28.83608154 -0.43191528 29.6048584 -0.45318604 C36.621482 -0.45612974 41.75047148 1.85045053 46.8125 6.6875 C54.00630786 17.58098047 52.84707172 29.72395109 50.48535156 42.10522461 C48.39393644 51.72037755 43.9532106 61.686851 35.81640625 67.58203125 C25.31168448 74.31750808 15.24263643 75.52661806 3 76 C3.16153564 75.10522949 3.32307129 74.21045898 3.48950195 73.28857422 C4.28498044 67.67891149 4.16254671 62.03748771 4.16796875 56.3828125 C4.17129715 55.17108368 4.17462555 53.95935486 4.17805481 52.71090698 C4.18310515 50.15411762 4.18546372 47.59732169 4.18530273 45.04052734 C4.18748855 41.14539656 4.20566299 37.25054947 4.22460938 33.35546875 C4.22754388 30.8645843 4.22952829 28.3736985 4.23046875 25.8828125 C4.23765427 24.72629181 4.24483978 23.56977112 4.25224304 22.37820435 C4.22987227 14.39524215 3.79150031 7.14408754 0 0 Z M18.38531494 7.1971283 C16.88661501 10.2294089 16.63024319 12.01608311 16.64355469 15.36938477 C16.64055359 16.4171962 16.63755249 17.46500763 16.63446045 18.54457092 C16.64680725 19.66552658 16.65915405 20.78648224 16.671875 21.94140625 C16.67374817 23.1012352 16.67562134 24.26106415 16.67755127 25.45603943 C16.68426572 27.90456015 16.69816809 30.35307025 16.71875 32.80151367 C16.74991294 36.55202186 16.75972354 40.30210951 16.765625 44.05273438 C16.77479507 46.4322968 16.78517085 48.81185494 16.796875 51.19140625 C16.80112488 52.31438614 16.80537476 53.43736603 16.80975342 54.59437561 C16.81936096 55.63903488 16.82896851 56.68369415 16.83886719 57.76000977 C16.84569519 58.6775856 16.85252319 59.59516144 16.85955811 60.5405426 C16.99031573 62.83040634 17.35699328 64.8049295 18 67 C20.90721715 67.42544641 23.12571273 67.44864742 25.78125 66.0859375 C33.23178051 60.49803962 35.74612505 51.52011427 37.3125 42.6875 C39.5356869 25.92343421 39.5356869 25.92343421 34.82421875 10.16015625 C32.49763748 7.24335082 30.70873545 5.22696676 26.94140625 4.7265625 C26.15636719 4.69304687 25.37132812 4.65953125 24.5625 4.625 C23.38880859 4.55152344 23.38880859 4.55152344 22.19140625 4.4765625 C19.78036553 4.80299229 19.78036553 4.80299229 18.38531494 7.1971283 Z " fill="#000000" transform="translate(1437,380)"/>
<path d="M0 0 C6.27 0 12.54 0 19 0 C18.83846436 1.56403564 18.67692871 3.12807129 18.51049805 4.73950195 C17.95374709 10.89114262 17.83853987 16.99423504 17.83203125 23.16796875 C17.82870285 24.28762527 17.82537445 25.4072818 17.82194519 26.56086731 C17.81691698 28.90963331 17.81453558 31.25840636 17.81469727 33.60717773 C17.81249963 37.18810726 17.7942696 40.76873372 17.77539062 44.34960938 C17.77245801 46.64322812 17.77047233 48.93684832 17.76953125 51.23046875 C17.76234573 52.29210739 17.75516022 53.35374603 17.74775696 54.44755554 C17.77224379 62.44609208 19.00615453 68.51538632 22 76 C17.71 76 13.42 76 9 76 C8.67 75.01 8.34 74.02 8 73 C7.175 73.474375 6.35 73.94875 5.5 74.4375 C-0.6889959 77.2004446 -6.35885325 77.57022713 -12.8828125 75.93359375 C-16.60815109 74.29087064 -18.87842635 71.40209489 -21 68 C-23.74832818 59.75501547 -22.73921433 49.41553809 -19.390625 41.50390625 C-15.44795512 34.40488549 -9.92373136 28.41594713 -2 26 C0.32796273 25.63102155 2.66113544 25.2920071 5 25 C4.77480077 15.8231312 4.54541265 8.21106801 0 0 Z M-2 35 C-8.96693548 43.5805309 -9.89136175 53.27580397 -9 64 C-8.07839742 67.69852905 -8.07839742 67.69852905 -6 70 C-3.66666667 71.33333333 -3.66666667 71.33333333 -1 71 C1.87397414 69.73696617 1.87397414 69.73696617 4 67 C6.30840098 59.31326272 6.23525953 51.91435258 6.125 43.9375 C6.11597656 42.69033203 6.10695313 41.44316406 6.09765625 40.15820312 C6.07426209 37.10526496 6.04148174 34.05273694 6 31 C2.68035367 31 0.40717064 32.894465 -2 35 Z " fill="#000000" transform="translate(1807,380)"/>
<path d="M0 0 C5.75528297 2.58191548 10.66574241 7.76507858 13.4765625 13.38671875 C14.09650239 22.01818956 13.95706924 28.0624528 8.4140625 34.94921875 C2.28007739 40.03912129 -3.96710207 43.25843139 -12.0703125 42.8125 C-18.22445032 41.74434551 -24.16180169 38.87297273 -28.5234375 34.38671875 C-32.01348146 28.55420461 -34.18055621 23.28646525 -33.5234375 16.38671875 C-30.93895391 8.41894494 -26.82370235 4.27350023 -19.5234375 0.38671875 C-14.37641034 -2.18679483 -5.52233131 -1.34211457 0 0 Z " fill="#131210" transform="translate(349.5234375,232.61328125)"/>
<path d="M0 0 C0.75410156 0.00322266 1.50820312 0.00644531 2.28515625 0.00976562 C3.06246094 0.01814453 3.83976562 0.02652344 4.640625 0.03515625 C5.43339844 0.03966797 6.22617188 0.04417969 7.04296875 0.04882812 C8.99222008 0.0605706 10.94143238 0.07850479 12.890625 0.09765625 C12.67701615 6.28732747 12.44645705 12.47606341 12.20092773 18.66455078 C12.11989466 20.76496664 12.04330243 22.86555914 11.97143555 24.96630859 C10.91554338 55.59446343 10.91554338 55.59446343 0.515625 67.91015625 C-2.59601832 70.50319235 -5.32890586 71.68924618 -9.109375 73.09765625 C-10.609375 71.72265625 -10.609375 71.72265625 -12.109375 70.09765625 C-12.109375 69.43765625 -12.109375 68.77765625 -12.109375 68.09765625 C-11.366875 67.58203125 -10.624375 67.06640625 -9.859375 66.53515625 C-5.30111476 62.49488013 -3.44122763 56.95780781 -2.109375 51.09765625 C-3.40875 51.30390625 -4.708125 51.51015625 -6.046875 51.72265625 C-12.40735556 52.40377858 -17.71514533 51.8152558 -22.984375 48.03515625 C-28.00222935 41.09871053 -28.60355693 34.73543727 -27.6796875 26.3125 C-26.27676422 18.40424071 -23.27137376 11.41999803 -17.109375 6.09765625 C-11.6479322 2.44086411 -6.64960984 -0.05037583 0 0 Z M-8.109375 10.09765625 C-13.45466463 16.59868418 -14.45779979 23.5892839 -14.421875 31.72265625 C-14.43798828 32.46 -14.45410156 33.19734375 -14.47070312 33.95703125 C-14.47479302 38.52135569 -13.94455088 41.47916772 -11.109375 45.09765625 C-9.27604167 46.26432292 -9.27604167 46.26432292 -7.109375 46.09765625 C-4.45085816 44.89499387 -2.65021778 43.877195 -0.97314453 41.45996094 C0.23774153 38.14833473 0.13711959 34.96496823 0.0859375 31.48828125 C0.0831076 30.76147156 0.08027771 30.03466187 0.07736206 29.28582764 C0.06620023 26.97293374 0.04110351 24.66043237 0.015625 22.34765625 C0.00559001 20.77604727 -0.00353494 19.20443221 -0.01171875 17.6328125 C-0.03372596 13.78761003 -0.06822785 9.94269961 -0.109375 6.09765625 C-2.9109916 6.09765625 -5.86531331 8.50811256 -8.109375 10.09765625 Z " fill="#000000" transform="translate(1305.109375,404.90234375)"/>
<path d="M0 0 C4.73607693 3.94673077 6.41664213 7.61962315 7.06881714 13.68725586 C7.36201037 17.22750121 7.48447653 20.76180092 7.56640625 24.3125 C7.58718735 25.07804199 7.60796844 25.84358398 7.62937927 26.63232422 C7.69408136 29.0464698 7.75338541 31.46071181 7.8125 33.875 C7.85576095 35.52474903 7.89937748 37.17448878 7.94335938 38.82421875 C8.05034028 42.84104911 8.14999968 46.8579657 8.25 50.875 C3.3 50.875 -1.65 50.875 -6.75 50.875 C-6.58886719 49.68519531 -6.42773438 48.49539063 -6.26171875 47.26953125 C-5.53601683 40.7099566 -5.56592123 34.15520072 -5.5625 27.5625 C-5.54413086 25.67047852 -5.54413086 25.67047852 -5.52539062 23.74023438 C-5.52345703 22.53044922 -5.52152344 21.32066406 -5.51953125 20.07421875 C-5.51542236 18.97940186 -5.51131348 17.88458496 -5.50708008 16.7565918 C-5.74815052 13.89693907 -6.18878127 12.25772959 -7.75 9.875 C-9.49992715 8.76953631 -9.49992715 8.76953631 -11.75 8.875 C-15.41594734 10.14685928 -17.28348724 11.1593891 -19.41796875 14.43359375 C-21.09091049 18.75576874 -21.1218185 22.29157881 -21 26.875 C-20.98904297 27.70427002 -20.97808594 28.53354004 -20.96679688 29.38793945 C-20.83955171 36.57659952 -20.36624088 43.71119972 -19.75 50.875 C-24.7 50.875 -29.65 50.875 -34.75 50.875 C-34.59402344 49.17214844 -34.43804688 47.46929687 -34.27734375 45.71484375 C-31.4535818 23.75824516 -31.4535818 23.75824516 -36.75 2.875 C-37.08 1.885 -37.41 0.895 -37.75 -0.125 C-31.81 -0.125 -25.87 -0.125 -19.75 -0.125 C-19.75 1.525 -19.75 3.175 -19.75 4.875 C-18.821875 4.070625 -17.89375 3.26625 -16.9375 2.4375 C-12.02863076 -1.81685334 -5.94782822 -2.43320245 0 0 Z " fill="#000000" transform="translate(1258.75,405.125)"/>
<path d="M0 0 C0.66 0.33 1.32 0.66 2 1 C2.56510589 19.41826605 2.56510589 19.41826605 -1 26 C-1.99 26.495 -1.99 26.495 -3 27 C-3.24234375 26.18015625 -3.4846875 25.3603125 -3.734375 24.515625 C-4.06953125 23.43796875 -4.4046875 22.3603125 -4.75 21.25 C-5.07484375 20.18265625 -5.3996875 19.1153125 -5.734375 18.015625 C-7.0742581 14.82306403 -8.33955926 13.18043799 -11 11 C-14.83812226 9.72062591 -16.77567214 9.93536316 -20.6875 11.0625 C-24.56648483 13.33134018 -25.49656628 14.82379523 -27 19 C-30.25288105 32.44676884 -27.97171221 47.83478947 -21.3046875 59.88671875 C-16.51736801 67.64102965 -10.31114054 72.06262305 -1.4375 74.3125 C-0.303125 74.539375 0.83125 74.76625 2 75 C1.125 78.875 1.125 78.875 0 80 C-10.83047266 80.68764906 -19.5721448 77.88694138 -28 71 C-37.09572844 62.83621095 -42.20749983 50.62158151 -43.20288086 38.53686523 C-43.30183466 36.00034121 -43.32221049 33.47582139 -43.3125 30.9375 C-43.32861328 30.09123047 -43.34472656 29.24496094 -43.36132812 28.37304688 C-43.36644745 21.73328777 -42.47714421 15.97464597 -38.1328125 10.7578125 C-37.47023438 10.21898437 -36.80765625 9.68015625 -36.125 9.125 C-35.46757813 8.57070313 -34.81015625 8.01640625 -34.1328125 7.4453125 C-27.93224511 3.2434628 -21.7227631 3.63380947 -14.48046875 3.52148438 C-8.87108552 3.34856354 -5.06562232 2.37409714 0 0 Z " fill="#000000" transform="translate(1044,376)"/>
<path d="M0 0 C6.93 0 13.86 0 21 0 C21.33 3.3 21.66 6.6 22 10 C23.11451366 13.70608131 23.11451366 13.70608131 24.5625 17 C27 22.85552408 27 22.85552408 27 25 C27.66 25 28.32 25 29 25 C30.39521416 20.84564034 31.75306782 16.68221684 33.0625 12.5 C33.40410156 11.4171875 33.74570312 10.334375 34.09765625 9.21875 C35.18206347 5.57339869 35.18206347 5.57339869 36 0 C40.62 0 45.24 0 50 0 C49.175 1.464375 48.35 2.92875 47.5 4.4375 C44.75860654 9.46991513 42.21129353 14.57507391 39.75 19.75 C39.40904297 20.45825928 39.06808594 21.16651855 38.71679688 21.89624023 C38.39259766 22.58532471 38.06839844 23.27440918 37.734375 23.984375 C37.44788086 24.58991211 37.16138672 25.19544922 36.86621094 25.81933594 C33.80841383 33.5172626 33.65968611 40.77947045 33.68432617 48.92529297 C33.68750213 51.12647328 33.66392301 53.32632748 33.63867188 55.52734375 C33.63639992 56.93749832 33.6356949 58.34765647 33.63671875 59.7578125 C33.63373779 61.0277002 33.63075684 62.29758789 33.62768555 63.60595703 C34.02856747 67.26042297 34.77988211 69.10300499 37 72 C37.99 72.66 38.98 73.32 40 74 C40 74.66 40 75.32 40 76 C31.42 76 22.84 76 14 76 C15.02551279 72.92346162 15.80796996 72.19203004 18 70 C19.6561049 65.03168529 19.30392983 59.87489663 19.35009766 54.67041016 C19.37449339 52.66661125 19.43104897 50.66328622 19.48828125 48.66015625 C19.57109835 39.39384345 17.97806884 32.349558 14 24 C13.5762207 23.10490723 13.15244141 22.20981445 12.71582031 21.28759766 C11.50411282 18.82965706 10.23628423 16.41288817 8.9375 14 C8.51662109 13.19433594 8.09574219 12.38867188 7.66210938 11.55859375 C5.35985767 7.22536341 3.13266896 3.9158362 0 0 Z " fill="#000000" transform="translate(770,380)"/>
<path d="M0 0 C3.7121749 2.62568469 6.10227429 5.23427316 7.390625 9.65234375 C8.34804684 16.68230223 8.67280145 23.48137478 8.578125 30.57421875 C8.54787823 36.84286098 8.54084381 42.66478008 12.5625 47.8125 C13.5525 48.3075 13.5525 48.3075 14.5625 48.8125 C14.5625 49.4725 14.5625 50.1325 14.5625 50.8125 C9.2825 50.8125 4.0025 50.8125 -1.4375 50.8125 C-2.0975 49.4925 -2.7575 48.1725 -3.4375 46.8125 C-3.98792969 47.28042969 -4.53835938 47.74835938 -5.10546875 48.23046875 C-10.13051896 51.63942241 -16.42012866 52.07280598 -22.3125 51.3125 C-26.12739312 49.4813513 -28.7036161 47.68688659 -30.4375 43.8125 C-31.33903201 38.49029787 -31.13834006 34.24013717 -28.75 29.375 C-21.65969533 21.51817591 -14.67988213 19.41014403 -4.4375 18.8125 C-4.57980808 17.39547487 -4.72650746 15.9788904 -4.875 14.5625 C-4.95621094 13.77359375 -5.03742188 12.9846875 -5.12109375 12.171875 C-5.41384993 9.98885361 -5.85814419 7.9351818 -6.4375 5.8125 C-10.39138282 5.34179966 -12.13371356 5.62415241 -15.5625 7.75 C-19.1809553 11.04469877 -20.76728059 15.3029076 -22.4375 19.8125 C-26.28125 18.0859375 -26.28125 18.0859375 -27.6875 15.625 C-28.95988657 10.85355038 -28.72868519 6.53307305 -27.4375 1.8125 C-9.00472193 -3.11072212 -9.00472193 -3.11072212 0 0 Z M-16.875 31.0625 C-19.05711534 34.903023 -19.4375 37.36700743 -19.4375 41.8125 C-17.66595348 44.33840848 -17.66595348 44.33840848 -15.4375 45.8125 C-10.59644265 44.79925544 -8.01966537 43.13023128 -5.33984375 39.09765625 C-3.53561737 34.52851151 -4.08132144 29.63278317 -4.4375 24.8125 C-9.1202106 24.8125 -13.55704017 27.99976785 -16.875 31.0625 Z " fill="#000000" transform="translate(1123.4375,405.1875)"/>
<path d="M0 0 C4.95 0 9.9 0 15 0 C14.97679687 2.13339844 14.95359375 4.26679688 14.9296875 6.46484375 C14.91403391 8.55997118 14.9019218 10.65509178 14.89013672 12.75024414 C14.88015687 14.19233171 14.86656816 15.63439946 14.84912109 17.07641602 C14.75638555 24.94530002 14.74140941 32.37934805 17 40 C18.09354906 41.29524348 18.09354906 41.29524348 20.75 41.375 C25.02591744 40.88162491 26.29806261 39.24232486 29 36 C30.87030139 32.25939721 30.19019492 27.74081511 30.1875 23.625 C30.18814453 22.63161621 30.18878906 21.63823242 30.18945312 20.61474609 C30.13822593 13.48601553 29.50945742 6.98124056 28 0 C32.62 0 37.24 0 42 0 C42.01458252 1.13429443 42.02916504 2.26858887 42.04418945 3.43725586 C42.1025494 7.68121475 42.17977728 11.9246638 42.26245117 16.16821289 C42.29552431 17.99820628 42.32360999 19.82829737 42.34643555 21.65844727 C42.38030807 24.30266613 42.43263641 26.94600379 42.48828125 29.58984375 C42.49467117 30.39646957 42.5010611 31.2030954 42.50764465 32.03416443 C42.65433586 37.81557409 43.94735398 42.61427802 46 48 C46.33 48.99 46.66 49.98 47 51 C42.05 51 37.1 51 32 51 C31.34 49.02 30.68 47.04 30 45 C29.57589844 45.42152344 29.15179687 45.84304688 28.71484375 46.27734375 C24.61363408 50.10814399 21.8378207 52 16 52 C12.0475009 51.3300849 9.72557651 50.62752563 6.6875 48 C1.65581064 39.05477446 2.61900779 27.75941787 2.43359375 17.8125 C2.27186464 11.55428674 1.83583095 5.99606077 0 0 Z " fill="#000000" transform="translate(874,405)"/>
<path d="M0 0 C4.50119878 2.79888927 7.1439679 7.04139537 8.68359375 12.046875 C8.99445957 15.13406863 9.00822526 18.1960599 8.99609375 21.296875 C9.01220703 22.10511719 9.02832031 22.91335938 9.04492188 23.74609375 C9.05107439 31.43674058 7.6419832 38.70392327 2.24609375 44.484375 C1.66988281 45.12246094 1.09367188 45.76054687 0.5 46.41796875 C-3.5314274 50.03324881 -7.97804463 50.94981388 -13.31640625 51.046875 C-19.26541622 50.44528972 -23.0852815 48.37416167 -27.31640625 44.046875 C-33.62302058 34.93732097 -34.13616516 24.9086805 -33.31640625 14.046875 C-32.203273 8.48120876 -29.7760402 4.5943111 -25.31640625 1.046875 C-17.78081133 -3.41296689 -8.01585991 -3.53297776 0 0 Z M-16.50390625 5.359375 C-22.25859458 13.89218874 -20.66325489 26.30886868 -19.31640625 36.046875 C-18.33963899 39.40306583 -17.40534255 41.18204808 -15.31640625 44.046875 C-13.3834662 44.95079357 -13.3834662 44.95079357 -11.31640625 45.046875 C-6.53755122 41.51962486 -5.28405507 37.68472207 -4.31640625 32.046875 C-4.03828425 29.03976401 -3.99102846 26.06542977 -4.00390625 23.046875 C-3.98779297 22.29148437 -3.97167969 21.53609375 -3.95507812 20.7578125 C-3.95032065 15.22011603 -5.03746617 11.10379314 -7.31640625 6.046875 C-9.13413429 3.83703249 -9.13413429 3.83703249 -11.69140625 3.671875 C-14.3583447 3.87962648 -14.3583447 3.87962648 -16.50390625 5.359375 Z " fill="#000000" transform="translate(855.31640625,405.953125)"/>
<path d="M0 0 C2.8125 1.5625 2.8125 1.5625 5 4 C6.12550942 8.18707248 6.29425067 10.32256914 4.55078125 14.33642578 C3.82519436 15.51064338 3.07756908 16.6714293 2.3125 17.8203125 C1.70607666 18.77818161 1.70607666 18.77818161 1.08740234 19.75540161 C-0.25213318 21.8528472 -1.62220958 23.92750841 -3 26 C-3.47228027 26.71748413 -3.94456055 27.43496826 -4.43115234 28.17419434 C-7.39971528 32.67658118 -10.41227386 37.14753197 -13.45068359 41.60302734 C-15.02984702 43.91876873 -16.6032492 46.23834525 -18.17578125 48.55859375 C-19.17936788 50.0366754 -20.18326192 51.51454838 -21.1875 52.9921875 C-21.65720215 53.68367889 -22.1269043 54.37517029 -22.61083984 55.08761597 C-25.88197171 59.88197171 -25.88197171 59.88197171 -27 61 C-28.56172745 61.08685603 -30.12729344 61.10702219 -31.69140625 61.09765625 C-32.63564453 61.09443359 -33.57988281 61.09121094 -34.55273438 61.08789062 C-35.54595703 61.07951172 -36.53917969 61.07113281 -37.5625 61.0625 C-38.55958984 61.05798828 -39.55667969 61.05347656 -40.58398438 61.04882812 C-43.05605138 61.03700005 -45.52798665 61.01967958 -48 61 C-43.43208372 53.78465494 -38.80764534 46.61023294 -34.11328125 39.4765625 C-33.48898727 38.52735931 -32.8646933 37.57815613 -32.22148132 36.60018921 C-30.91530029 34.61514563 -29.60863986 32.63041743 -28.30151367 30.64599609 C-26.30474175 27.61321644 -24.31153395 24.57811344 -22.31835938 21.54296875 C-21.04188514 19.60402282 -19.7651999 17.66521578 -18.48828125 15.7265625 C-17.89654617 14.82443024 -17.3048111 13.92229797 -16.69514465 12.99282837 C-7.62662616 -0.74770845 -7.62662616 -0.74770845 0 0 Z " fill="#EE9C05" transform="translate(399,33)"/>
<path d="M0 0 C4.053094 2.86682259 6.11264891 5.25301624 7.5 10.0625 C7.59180006 15.57050368 6.62743215 20.23970616 3.1171875 24.61328125 C-2.9239835 30.27512291 -10.41395872 31.95893178 -18.4375 32.8125 C-16.91076789 39.02968131 -16.91076789 39.02968131 -13.0625 43.9375 C-9.90156635 44.99114455 -8.55282474 44.98074678 -5.4375 43.8125 C-0.83800103 40.89574455 1.1132029 37.52966479 3.5625 32.8125 C4.5525 33.1425 5.5425 33.4725 6.5625 33.8125 C7.01297923 42.67192492 7.01297923 42.67192492 3.5625 46.8125 C-1.81488169 51.42168431 -6.88923081 52.10643576 -13.734375 51.6640625 C-20.07849243 50.67963049 -24.28688307 47.63698179 -28.4375 42.8125 C-33.07723258 35.39534965 -33.45912956 25.62193587 -31.9765625 17.19140625 C-30.21131839 10.36925695 -27.39161071 5.41003471 -21.43359375 1.49609375 C-14.5558171 -2.03507244 -7.30094511 -2.52214467 0 0 Z M-15.0625 6.8125 C-19.63150379 12.58387321 -19.69245752 18.67368945 -19.4375 25.8125 C-13.28326594 25.44324596 -10.71046499 23.98372773 -6.4375 19.8125 C-5.21058933 17.35867866 -5.23574069 15.61265897 -5.1875 12.875 C-5.16171875 11.99972656 -5.1359375 11.12445313 -5.109375 10.22265625 C-5.25551411 7.77951588 -5.25551411 7.77951588 -6.703125 5.99609375 C-10.01803964 3.73388849 -12.07615419 4.53718891 -15.0625 6.8125 Z " fill="#000000" transform="translate(1528.4375,405.1875)"/>
<path d="M0 0 C3.73236759 2.73100068 6.15982617 5.35037082 6.91015625 10.0546875 C7.13404754 15.83692354 6.1009912 20.06821298 2.12109375 24.46875 C-3.13885932 29.44800952 -9.227966 32.01842707 -16.5 32.0625 C-17.9540625 31.9696875 -17.9540625 31.9696875 -19.4375 31.875 C-19.01155412 33.31596586 -18.57123367 34.75268712 -18.125 36.1875 C-17.75955078 37.38826172 -17.75955078 37.38826172 -17.38671875 38.61328125 C-16.37944832 41.01332066 -15.43943454 42.23797505 -13.4375 43.875 C-10.48623968 44.96230643 -9.02562605 45.09167802 -6.0625 44 C-2.74630936 41.31546472 -0.47120817 38.19015526 2.01171875 34.73828125 C2.77935547 33.81595703 2.77935547 33.81595703 3.5625 32.875 C4.2225 32.875 4.8825 32.875 5.5625 32.875 C6.83753302 38.55469253 6.40515908 41.77781821 3.5625 46.875 C-0.96571966 51.0510248 -6.49060342 51.44113836 -12.4375 51.875 C-18.77803121 51.50938515 -23.03544204 49.58417828 -27.4375 44.875 C-32.85889224 36.13474263 -33.40504001 26.9415333 -32.4375 16.875 C-30.67562297 9.82749188 -26.85655848 5.20996676 -20.875 1.125 C-14.50055109 -2.14394816 -6.72880881 -2.20215561 0 0 Z M-18.4375 10.875 C-19.56272828 14.13332973 -19.54080144 17.19767939 -19.5 20.625 C-19.49097656 21.60984375 -19.48195313 22.5946875 -19.47265625 23.609375 C-19.46105469 24.35703125 -19.44945312 25.1046875 -19.4375 25.875 C-14.18337663 25.46291189 -11.15413943 24.69782913 -7.4375 20.875 C-5.19216277 16.91892963 -5.02891152 13.36947333 -5.4375 8.875 C-6.45740794 6.37401018 -6.45740794 6.37401018 -8.4375 4.875 C-13.74706831 3.47774518 -15.60414081 6.78237006 -18.4375 10.875 Z " fill="#000000" transform="translate(1770.4375,405.125)"/>
<path d="M0 0 C3.70547469 2.87018783 4.4862091 6.16091219 5.06640625 10.63671875 C4.33790774 16.67284929 2.12458085 20.69647789 -2.05859375 25.07421875 C-8.20289668 29.13177729 -14.05023832 30.72900739 -21.37109375 30.26171875 C-20.94514787 31.70268461 -20.50482742 33.13940587 -20.05859375 34.57421875 C-19.69314453 35.77498047 -19.69314453 35.77498047 -19.3203125 37 C-18.31342915 39.39911712 -17.36717928 40.62026771 -15.37109375 42.26171875 C-13.05915182 43.35787971 -13.05915182 43.35787971 -10.37109375 43.26171875 C-4.76158179 40.5738276 -2.26011752 36.52843465 0.62890625 31.26171875 C1.61890625 31.59171875 2.60890625 31.92171875 3.62890625 32.26171875 C4.22404562 37.12202358 4.3303238 41.10865759 1.37890625 45.19921875 C-2.95922451 49.6091389 -8.41683542 50.08523944 -14.37109375 50.26171875 C-20.19986042 49.96488341 -24.66321601 48.22348306 -28.86328125 44.12109375 C-35.3328425 36.14308558 -35.4122036 26.1540534 -34.65039062 16.32324219 C-33.84551147 10.38233344 -31.10104673 6.0851827 -27.05859375 1.82421875 C-18.41789565 -3.19944294 -9.10173426 -5.24039245 0 0 Z M-19.37109375 7.26171875 C-21.18359079 11.05807618 -21.72034119 14.39197158 -21.99609375 18.57421875 C-22.10824219 20.17716797 -22.10824219 20.17716797 -22.22265625 21.8125 C-22.27164062 22.62074219 -22.320625 23.42898438 -22.37109375 24.26171875 C-16.4563249 23.99655584 -16.4563249 23.99655584 -11.49609375 21.01171875 C-8.32036911 16.90195745 -7.11716791 14.24412457 -7.62109375 9.07421875 C-8.00416628 5.25709809 -8.00416628 5.25709809 -10.37109375 3.26171875 C-14.88612102 2.54881971 -16.60656308 3.73455893 -19.37109375 7.26171875 Z " fill="#000000" transform="translate(1685.37109375,406.73828125)"/>
<path d="M0 0 C2.65210177 2.65210177 2.29859444 3.99325599 2.3125 7.6875 C2.24330334 12.91499303 1.48986039 16.43525594 -1 21 C-1.99 21 -2.98 21 -4 21 C-4.22042969 20.07767578 -4.22042969 20.07767578 -4.4453125 19.13671875 C-5.61796633 14.91112133 -6.27061679 12.56729805 -9.8125 9.8125 C-13.67397985 8.82820121 -15.47512783 9.19657703 -19 11 C-20.28886225 13.84467962 -20.28886225 13.84467962 -19.2824707 16.03955078 C-17.85774138 18.21746368 -16.72381083 19.08190646 -14.48046875 20.3671875 C-13.78759766 20.77839844 -13.09472656 21.18960937 -12.38085938 21.61328125 C-10.93080138 22.44741969 -9.48028793 23.28076693 -8.02929688 24.11328125 C-3.34986902 26.89236791 -0.06992276 29.46030727 3 34 C4.17861835 38.80232074 3.49458824 42.93168939 1.4375 47.375 C-3.53436523 52.72931641 -8.21966798 54.59537552 -15.37890625 55.03125 C-23.14365259 54.93867478 -28.46931979 53.53068021 -34 48 C-32.80002533 41.88012917 -31.15644829 39.5450582 -26 36 C-25.34 36 -24.68 36 -24 36 C-23.7525 37.0725 -23.505 38.145 -23.25 39.25 C-21.69237505 43.97236381 -21.69237505 43.97236381 -18 47 C-14.96948017 47.31927756 -12.03442084 47.23341699 -9 47 C-8.49803706 43.71073505 -8.49803706 43.71073505 -9 40 C-12.36425621 36.36296626 -16.3618302 34.15669743 -20.5625 31.5625 C-29.97024452 25.61066163 -29.97024452 25.61066163 -31.6171875 19.8359375 C-32.24640749 15.99641146 -32.13513199 13.42129384 -30.9375 9.6875 C-28.02496391 5.64753058 -24.6899434 3.56331447 -20 2 C-16.21734702 1.96956486 -12.44555161 2.06692427 -8.6640625 2.16015625 C-5.22381731 2.00978306 -3.05686808 1.50482888 0 0 Z " fill="#000000" transform="translate(1358,402)"/>
<path d="M0 0 C6.27 0 12.54 0 19 0 C19.20625 2.248125 19.4125 4.49625 19.625 6.8125 C20.6966069 16.61998753 23.79038765 25.71432904 27 35 C28.21086906 31.15278569 29.38941607 27.29638752 30.5625 23.4375 C31.07586914 21.80844727 31.07586914 21.80844727 31.59960938 20.14648438 C33.36155753 14.29112131 34.56003106 9.96574691 33 4 C32.505 2.02 32.505 2.02 32 0 C38.27 0 44.54 0 51 0 C50.175 1.4025 49.35 2.805 48.5 4.25 C45.52352686 9.70097576 43.12038781 15.29921512 40.8125 21.0625 C40.47992187 21.8884668 40.14734375 22.71443359 39.8046875 23.56542969 C35.19290963 34.75777628 35.19290963 34.75777628 33.8125 46.625 C33.874375 48.06875 33.93625 49.5125 34 51 C28.06 51 22.12 51 16 51 C16.2475 48.463125 16.2475 48.463125 16.5 45.875 C16.5 29.82173809 7.32245651 13.8603641 0 0 Z " fill="#000000" transform="translate(1595,405)"/>
<path d="M0 0 C6.27 0 12.54 0 19 0 C18.9071875 2.36671875 18.9071875 2.36671875 18.8125 4.78125 C18.8125 11.06998209 20.18517277 16.51597509 22 22.5 C22.56562121 24.42616953 23.1282639 26.35321696 23.6875 28.28125 C23.93886719 29.11720703 24.19023438 29.95316406 24.44921875 30.81445312 C25 33 25 33 25 36 C25.66 36 26.32 36 27 36 C27.2475 34.824375 27.495 33.64875 27.75 32.4375 C28.55375454 28.72380203 29.55267892 25.10137891 30.62329102 21.45629883 C32.85795586 13.70797802 33.61119435 7.83358304 31 0 C37.27 0 43.54 0 50 0 C48.56936426 3.57658935 47.06347654 6.86887785 45.28320312 10.2644043 C38.35889339 23.57144851 32.94686511 35.72954408 34 51 C27.73 51 21.46 51 15 51 C15.22558594 49.55882812 15.45117188 48.11765625 15.68359375 46.6328125 C16.25837129 40.78632754 15.0488778 36.33625177 13.0625 30.875 C12.74909668 29.97209229 12.43569336 29.06918457 12.11279297 28.13891602 C9.4986163 20.84277597 6.25988163 13.97523236 2.6015625 7.15234375 C1 4 1 4 0 0 Z " fill="#000000" transform="translate(1138,405)"/>
<path d="M0 0 C4.44381884 1.6570172 4.71656483 2.61891591 6.75 6.75 C7.74412181 8.9516415 8.72335309 11.1600679 9.6875 13.375 C17.49310709 30.04851574 30.27801003 40.83038392 46.47265625 49.1484375 C48.6875 50.375 48.6875 50.375 50.6875 52.375 C51.01765665 55.47847254 51.19281294 57.53281176 49.5625 60.25 C46.78957192 61.91375685 44.89993523 61.64992119 41.6875 61.375 C39.13961961 60.32553636 36.88735164 59.26888981 34.5 57.9375 C33.84362549 57.57696533 33.18725098 57.21643066 32.51098633 56.8449707 C14.57296328 46.68992902 0.28608352 29.89183195 -6.79296875 10.46484375 C-7.54346149 7.4459444 -7.40124916 5.27833108 -6.3125 2.375 C-3.3125 0.375 -3.3125 0.375 0 0 Z " fill="#161410" transform="translate(251.3125,132.625)"/>
<path d="M0 0 C6.27 0 12.54 0 19 0 C18.67 2.31 18.34 4.62 18 7 C17.91748299 9.375089 17.88211403 11.75214411 17.88647461 14.12866211 C17.88632858 14.80268066 17.88618256 15.47669922 17.8860321 16.17114258 C17.88672231 18.37324372 17.89447236 20.5752576 17.90234375 22.77734375 C17.90421111 24.31433567 17.90563351 25.85132819 17.90663147 27.38832092 C17.91043163 31.41437451 17.9202403 35.44039146 17.93133545 39.46643066 C17.9416036 43.58243311 17.94614062 47.69844153 17.95117188 51.81445312 C17.96186503 59.87632069 17.97944132 67.93815155 18 76 C13.05 76 8.1 76 3 76 C3.16081055 74.61772217 3.32162109 73.23544434 3.48730469 71.8112793 C4.11056698 65.54532137 4.17989676 59.31243076 4.203125 53.01953125 C4.20882507 51.80730392 4.21452515 50.5950766 4.22039795 49.34611511 C4.22979319 46.79886739 4.23635997 44.25160781 4.24023438 41.7043457 C4.24999686 37.81375196 4.28109555 33.92367453 4.3125 30.03320312 C4.31902586 27.54948228 4.32427797 25.06575769 4.328125 22.58203125 C4.3404718 21.42459915 4.3528186 20.26716705 4.36553955 19.07466125 C4.34846089 12.88104024 3.91535019 8.48497566 1 3 C0.67 2.01 0.34 1.02 0 0 Z " fill="#000000" transform="translate(1543,380)"/>
<path d="M0 0 C0.66 0.33 1.32 0.66 2 1 C4.83505787 9.5051736 2.39224676 17.03427769 -1 25 C-1.66 25 -2.32 25 -3 25 C-4.32 21.7 -5.64 18.4 -7 15 C-11.81454755 14.49728678 -11.81454755 14.49728678 -14.29296875 16.734375 C-16.93551536 21.78968157 -16.45912986 26.63896389 -16.3125 32.25 C-16.30283203 33.34441406 -16.29316406 34.43882812 -16.28320312 35.56640625 C-16.19768776 41.77556513 -15.79888278 47.84275713 -15 54 C-20.28 54 -25.56 54 -31 54 C-30.855625 52.61167969 -30.71125 51.22335937 -30.5625 49.79296875 C-27.78393322 25.83902479 -27.78393322 25.83902479 -34 3 C-27.73 3 -21.46 3 -15 3 C-15 4.65 -15 6.3 -15 8 C-13.41058594 7.11634766 -13.41058594 7.11634766 -11.7890625 6.21484375 C-10.40127133 5.45530939 -9.01323787 4.6962176 -7.625 3.9375 C-6.92632813 3.54755859 -6.22765625 3.15761719 -5.5078125 2.75585938 C-3.70389816 1.77584822 -1.85416518 0.88124929 0 0 Z " fill="#000000" transform="translate(1731,402)"/>
<path d="M0 0 C0.66 0.33 1.32 0.66 2 1 C4.04259013 8.32568038 2.77679902 16.03596436 0 23 C-0.99 23.66 -1.98 24.32 -3 25 C-4.32 21.7 -5.64 18.4 -7 15 C-9.31 15 -11.62 15 -14 15 C-14.309375 15.78375 -14.61875 16.5675 -14.9375 17.375 C-16 20 -16 20 -17 22 C-17.68831838 32.75697559 -16.35223957 43.35111335 -15 54 C-20.28 54 -25.56 54 -31 54 C-30.84015625 52.66195312 -30.6803125 51.32390625 -30.515625 49.9453125 C-29.81852655 42.9273604 -29.77771864 35.92246494 -29.75 28.875 C-29.729375 27.55628906 -29.70875 26.23757813 -29.6875 24.87890625 C-29.6591418 17.824804 -29.96371699 12.39459603 -33 6 C-33.33 5.01 -33.66 4.02 -34 3 C-28.06 3 -22.12 3 -16 3 C-15.67 4.65 -15.34 6.3 -15 8 C-13.41058594 7.11634766 -13.41058594 7.11634766 -11.7890625 6.21484375 C-10.40127133 5.45530939 -9.01323787 4.6962176 -7.625 3.9375 C-6.92632813 3.54755859 -6.22765625 3.15761719 -5.5078125 2.75585938 C-3.70389816 1.77584822 -1.85416518 0.88124929 0 0 Z " fill="#000000" transform="translate(962,402)"/>
<path d="M0 0 C2.633459 2.633459 2.62972771 4.32813312 3 8 C2.765625 11.03515625 2.765625 11.03515625 2.25 14.0625 C2.01023437 15.56490234 2.01023437 15.56490234 1.765625 17.09765625 C0.95695402 20.16317939 -0.24673524 22.37491952 -2 25 C-4 23 -4 23 -5.3125 19.4375 C-6.62537792 15.8738719 -6.62537792 15.8738719 -9.4375 14.8125 C-12.14677263 14.76650233 -12.14677263 14.76650233 -14.25 16.8125 C-17.46075085 20.82593856 -17.15357574 24.23267036 -17.125 29.1875 C-17.12209961 30.38415283 -17.12209961 30.38415283 -17.11914062 31.60498047 C-17.06558206 39.10466716 -16.58635338 46.52399436 -16 54 C-20.95 54 -25.9 54 -31 54 C-30.76023437 51.71449219 -30.76023437 51.71449219 -30.515625 49.3828125 C-29.89816472 42.54476835 -29.77942208 35.7377009 -29.75 28.875 C-29.729375 27.66457031 -29.70875 26.45414062 -29.6875 25.20703125 C-29.65693524 18.18477823 -30.2780811 12.48016472 -33 6 C-33.33 5.01 -33.66 4.02 -34 3 C-28.06 3 -22.12 3 -16 3 C-16 4.98 -16 6.96 -16 9 C-15.0409375 8.13375 -15.0409375 8.13375 -14.0625 7.25 C-10.27221648 4.4653019 -6.31609016 2.80614382 -2 1 C-1.34 0.67 -0.68 0.34 0 0 Z " fill="#000000" transform="translate(1086,402)"/>
<path d="M0 0 C5.94 0 11.88 0 18 0 C17.83757812 1.52753906 17.67515625 3.05507813 17.5078125 4.62890625 C16.8941553 11.40407208 16.85289028 18.13876153 16.875 24.9375 C16.87113281 26.12279297 16.86726563 27.30808594 16.86328125 28.52929688 C16.87156242 36.07758144 17.27784117 43.48610936 18 51 C13.05 51 8.1 51 3 51 C3.165 49.35 3.33 47.7 3.5 46 C4.01293908 39.25001909 4.14607785 32.51837996 4.1875 25.75 C4.20039062 24.73292969 4.21328125 23.71585937 4.2265625 22.66796875 C4.23733664 14.40420618 3.06988199 7.67470498 0 0 Z " fill="#000000" transform="translate(1572,405)"/>
<path d="M0 0 C5.94 0 11.88 0 18 0 C17.83757812 1.52753906 17.67515625 3.05507813 17.5078125 4.62890625 C16.8941553 11.40407208 16.85289028 18.13876153 16.875 24.9375 C16.87113281 26.12279297 16.86726563 27.30808594 16.86328125 28.52929688 C16.87156242 36.07758144 17.27784117 43.48610936 18 51 C13.05 51 8.1 51 3 51 C3.165 49.370625 3.33 47.74125 3.5 46.0625 C4.01780247 39.14831408 4.18067088 32.24490214 4.25 25.3125 C4.27126953 24.25619385 4.29253906 23.1998877 4.31445312 22.11157227 C4.34462531 15.21884348 3.35457736 9.47045881 1 3 C0.67 2.01 0.34 1.02 0 0 Z " fill="#000000" transform="translate(1194,405)"/>
<path d="M0 0 C0.83394287 0.00016113 1.66788574 0.00032227 2.52709961 0.00048828 C9.78026902 0.13421969 17.40156538 1.02656538 22.75 6.375 C22.58162496 8.98481317 22.00129092 10.11365744 20.1875 12 C14.00502836 15.4875481 7.23851203 15.71545001 0.3125 15.6875 C-0.48220703 15.70361328 -1.27691406 15.71972656 -2.09570312 15.73632812 C-9.16226159 15.74207797 -15.32911846 14.32225436 -21.25 10.375 C-20.93619894 7.47234017 -20.68052594 5.82208463 -18.625 3.6875 C-12.66199192 0.39215343 -6.67450326 -0.01204422 0 0 Z " fill="#161410" transform="translate(339.25,397.625)"/>
<path d="M0 0 C5.61 0 11.22 0 17 0 C18.72073108 10.49645959 17.4349668 18.82116916 11.59765625 27.828125 C9.60068697 30.5428314 7.52452361 32.77247917 5 35 C3.35 34.34 1.7 33.68 0 33 C0.20496094 32.40832031 0.40992188 31.81664062 0.62109375 31.20703125 C4.64104944 19.60320676 4.64104944 19.60320676 3.10546875 7.7109375 C2.39604259 6.33219408 1.65476384 4.96912535 0.875 3.62890625 C0 2 0 2 0 0 Z " fill="#000000" transform="translate(1374,438)"/>
<path d="M0 0 C2.49455917 3.74183875 2.37606522 5.56243036 2 10 C0.64587093 13.98715783 -0.15116181 15.5386749 -3.875 17.5625 C-7 18 -7 18 -9.75 16.875 C-12.63191412 14.4734049 -13.76114532 12.4507279 -14.37109375 8.74609375 C-14.54785968 2.60087835 -14.54785968 2.60087835 -12.0625 -0.125 C-7.94824309 -1.30050197 -4.10985507 -1.27575069 0 0 Z " fill="#000000" transform="translate(1589,379)"/>
<path d="M0 0 C0.78503906 0.06703125 1.57007813 0.1340625 2.37890625 0.203125 C4.4375 0.75 4.4375 0.75 6.4375 3.75 C6.90952675 8.54893866 6.88772374 10.83287757 4.75 15.1875 C2.4375 17.75 2.4375 17.75 0 18.8125 C-3.36209876 18.73049759 -4.93011276 17.81322243 -7.5625 15.75 C-10.36618337 12.14526424 -9.83926613 8.10906648 -9.5625 3.75 C-6.79892806 -0.3953579 -4.66319662 -0.46094201 0 0 Z " fill="#000000" transform="translate(1206.5625,378.25)"/>
</svg>
